<?xml version="1.0" encoding="utf-8"?>
<!-- Generator: Adobe Illustrator 27.6.0, SVG Export Plug-In . SVG Version: 6.00 Build 0)  -->
<svg version="1.1" id="Calque_3" xmlns="http://www.w3.org/2000/svg" xmlns:xlink="http://www.w3.org/1999/xlink" x="0px" y="0px"
	 viewBox="0 0 1920 1080" style="enable-background:new 0 0 1920 1080;" xml:space="preserve">
<style type="text/css">
	.st0{fill:#0098C2;}
	.st1{fill:#9EBD1C;}
	.st2{fill:#E55434;}
	.st3{fill:#929292;}
</style>
<g>
	<path class="st0" d="M275.1,571.6v-4.7c-11.6,9.4-24.4,16.7-38.1,21.4c-13.7,5.1-28.3,7.3-44.1,7.3c-36,0-67.2-12.8-92.5-38.5
		C74.8,531.3,62,500.5,62,464.5s12.8-67.2,38.5-92.5c25.7-25.7,56.5-38.5,92.5-38.5s66.8,12.8,92.5,38.5
		c25.7,25.7,38.5,56.5,38.5,92.5v106.6c0,6.8-2.6,12.4-7.3,17.1s-10.3,7.3-17.1,7.3s-12.8-2.6-17.5-7.3
		C277.3,584,275.1,578.4,275.1,571.6z M192.9,383.2c-11.6,0-22.3,2.1-32.1,6.4s-18.8,10.3-26.1,17.5c-7.3,7.3-13.3,16.3-17.5,26.1
		c-4.3,9.8-6.4,20.5-6.4,31.7s2.1,21.8,6.4,31.7s10.3,18.8,17.5,26.1c7.3,7.3,15.8,13.3,26.1,17.5c9.8,4.3,20.5,6.4,32.1,6.4
		c11.6,0,22.3-2.1,32.1-6.4s18.8-10.3,26.1-18c7.3-7.3,13.3-16.3,17.5-26.1c4.3-9.8,6.4-20.5,6.4-31.7s-2.1-21.8-6.4-31.7
		c-4.3-9.8-10.3-18.4-17.5-26.1s-16.3-12.8-26.1-17.1C215.2,385.4,204.5,383.2,192.9,383.2z"/>
	<path class="st0" d="M537.1,521.9c6.8,0,12.8,2.1,17.5,6.8s6.8,10.3,6.8,17.5c0,6.8-2.6,12.8-7.7,18c-24,21.4-52.6,31.7-85.2,31.7
		c-36,0-67.2-12.8-92.5-38.5c-25.7-25.7-38.5-56.5-38.5-92.5s12.8-67.2,38.5-92.5c25.7-25.7,56.5-38.5,92.5-38.5
		c33,0,61.2,10.7,85.2,31.7c5.6,5.1,8.6,11.1,8.6,18.4c0,6.8-2.1,12.8-6.8,17.5s-10.3,6.8-17.5,6.8c-6,0-11.1-1.7-15.8-5.6
		c-8.1-6.8-16.3-11.6-24.8-15.4c-8.6-3.4-18.4-5.1-28.7-5.1c-11.6,0-22.3,2.1-32.1,6.4s-18.8,10.3-26.1,17.5s-13.3,16.3-17.5,26.1
		s-6.4,20.5-6.4,32.1s2.1,22.3,6.4,32.1s10.3,18.8,17.5,26.1c7.3,7.3,16.3,13.3,26.1,17.5c9.8,4.3,20.5,6.4,32.1,6.4
		c10.3,0,19.7-1.7,28.7-5.1c8.6-3.4,17.1-8.6,24.8-15C526,523.6,531.1,521.9,537.1,521.9z"/>
	<path class="st0" d="M775.5,521.9c6.8,0,12.8,2.1,17.5,6.8c4.7,4.7,6.8,10.3,6.8,17.5c0,6.8-2.6,12.8-7.7,18
		c-24,21.4-52.6,31.7-85.2,31.7c-36,0-67.2-12.8-92.5-38.5C588.9,531.7,576,500.9,576,465s12.8-67.2,38.5-92.5
		c25.7-25.7,56.5-38.5,92.5-38.5c33,0,61.2,10.7,85.2,31.7c5.6,5.1,8.6,11.1,8.6,18.4c0,6.8-2.1,12.8-6.8,17.5
		c-4.7,4.7-10.3,6.8-17.5,6.8c-6,0-11.1-1.7-15.8-5.6c-8.1-6.8-16.3-11.6-24.8-15.4c-8.6-3.4-18.4-5.1-28.7-5.1
		c-11.6,0-22.3,2.1-32.1,6.4c-9.8,4.3-18.8,10.3-26.1,17.5c-7.3,7.3-13.3,16.3-17.5,26.1s-6.4,20.5-6.4,32.1s2.1,22.3,6.4,32.1
		s10.3,18.8,17.5,26.1c7.3,7.3,16.3,13.3,26.1,17.5c9.8,4.3,20.5,6.4,32.1,6.4c10.3,0,19.7-1.7,28.7-5.1c8.6-3.4,17.1-8.6,24.8-15
		C764.8,523.6,769.9,521.9,775.5,521.9z"/>
	<path class="st0" d="M904.3,287.8c0,8.1-3,14.6-8.6,20.5c-5.6,5.6-12.4,8.6-20.5,8.6c-8.1,0-14.6-3-20.5-8.6
		c-5.6-5.6-8.6-12.4-8.6-20.5c0-8.1,3-14.6,8.6-20.5c5.6-5.6,12.4-8.6,20.5-8.6s14.6,3,20.5,8.6
		C901.8,272.8,904.3,279.6,904.3,287.8z M851.3,571.6V358.8c0-6.8,2.6-12.8,7.3-17.5c4.7-4.7,10.3-7.3,17.1-7.3s12.4,2.6,17.1,7.3
		c4.7,4.7,7.3,10.7,7.3,17.5v212.7c0,6.8-2.6,12.8-7.3,17.5c-4.7,4.7-10.3,7.3-17.1,7.3s-12.4-2.6-17.1-7.3
		C853.8,584,851.3,578.4,851.3,571.6z"/>
	<path class="st1" d="M930.9,571.6V246.2c0-6.8,2.1-12.8,6.8-17.5c4.7-4.7,10.3-7.3,17.5-7.3c6.8,0,12.8,2.6,17.5,7.3
		c4.7,4.7,6.8,10.7,6.8,17.5v300.5h11.1c6.8,0,12.4,2.6,17.1,7.3c4.7,4.7,7.3,10.7,7.3,17.5c0,6.8-2.6,12.4-7.3,17.1
		c-4.7,4.7-10.3,7.3-17.1,7.3h-36c-6.8,0-12.4-2.6-17.1-7.3C933,584,930.9,578.4,930.9,571.6z"/>
	<path class="st1" d="M1036.6,649c0-8.1,3-14.6,8.6-20.5c5.6-5.6,12.4-8.6,20.5-8.6s14.6,3,20.5,8.6c5.6,5.6,8.6,12.4,8.6,20.5
		c0,8.1-3,14.6-8.6,20.5c-5.6,5.6-12.4,8.6-20.5,8.6s-14.6-3-20.5-8.6C1039.2,663.6,1036.6,656.7,1036.6,649z M1089.7,365.2V578
		c0,6.8-2.6,12.8-7.3,17.5s-10.3,7.3-17.1,7.3s-12.4-2.6-17.1-7.3s-7.3-10.7-7.3-17.5V365.2c0-6.8,2.6-12.8,7.3-17.5
		s10.3-7.3,17.1-7.3s12.4,2.6,17.1,7.3C1087.1,352.4,1089.7,358.4,1089.7,365.2z"/>
	<path class="st1" d="M1165.5,358.4c20.5-15.8,44.9-24,73.2-24c16.3,0,32.1,3,46.7,9.4c14.6,6.4,27.8,15,39,26.1
		c11.1,11.1,20.1,24,26.5,39s9.8,30.8,9.8,47.5v115.1c0,6.8-2.6,12.8-7.3,17.5c-4.7,4.7-10.3,7.3-17.1,7.3s-12.8-2.6-17.5-7.3
		s-7.3-10.7-7.3-17.5V456.4c0-9.8-2.1-19.3-6-28.3c-3.9-9-9-16.7-15.8-23.1c-6.4-6.4-14.6-12-23.1-15.8c-8.6-3.9-18.4-6-28.3-6
		c-10.3,0-19.7,1.7-28.3,5.6c-9,3.9-16.7,9-23.1,15.8c-6.8,6.8-12,14.6-15.8,23.5c-3.9,9-5.6,18.4-5.6,28.3v115.1
		c0,6.8-2.6,12.8-7.3,17.5c-4.7,4.7-10.3,7.3-17.1,7.3c-6.8,0-12.8-2.6-17.5-7.3s-7.3-10.7-7.3-17.5V358.8c0-6.8,2.6-12.4,7.3-17.1
		s10.7-7.3,17.5-7.3c6.8,0,12.4,2.6,17.1,7.3C1162.9,346.4,1165.5,352,1165.5,358.4z"/>
	<path class="st1" d="M1578.9,522.3c6.8,0,12.8,2.1,17.5,6.8c4.7,4.7,6.8,10.3,6.8,17.5c0,6.8-2.1,12.8-6.8,17.5
		c-24,21.4-52.6,31.7-85.6,31.7c-36,0-67.2-12.8-92.5-38.5c-25.7-25.7-38.5-56.5-38.5-92.5s12.8-67.2,38.5-92.5
		c25.7-25.7,56.5-38.5,92.5-38.5s66.8,12.8,92.5,38.5c12.8,12.4,22.3,26.5,28.7,42.4c6.4,15.4,9.4,32.1,9.4,50.5
		c0,6.8-2.6,12.8-7.3,17.5c-4.7,4.7-10.7,6.8-17.5,6.8h-185.3c2.6,8.6,6.4,16.3,11.6,23.5c5.1,7.3,11.1,13.3,18,18.4s14.6,9,23.1,12
		c8.1,3,17.1,4.3,26.1,4.3c10.3,0,19.7-1.7,28.3-4.7c8.6-3,16.7-7.7,24-14.1C1567.4,524.5,1573,522.8,1578.9,522.3z M1589.6,441
		c-2.6-8.6-6.4-16.3-12-23.5c-5.1-7.3-11.1-13.3-18.4-18.4c-6.8-5.1-14.6-9-23.1-12c-8.1-3-17.1-4.3-25.7-4.3s-17.5,1.3-26.1,4.3
		c-8.6,3-16.3,6.8-23.1,12c-6.8,5.1-13.3,11.1-18.4,18.4c-5.1,7.3-9,15-11.6,23.5H1589.6z"/>
	<path class="st2" d="M1844.8,346h-59.1V405c0,6.4-2.1,12-6.4,15.8c-4.3,4.3-9.4,6.4-15.8,6.4s-12-2.1-16.3-6.4
		c-4.3-4.3-6.4-9.4-6.4-15.8V346h-59.1c-6.4,0-12-2.1-15.8-6.4c-3.9-4.3-6.4-9.8-6.4-16.3s2.1-12,6.4-15.8c4.3-4.3,9.4-6.4,15.8-6.4
		h59.1v-59.5c0-6,2.1-11.6,6.4-15.8c4.3-4.3,9.8-6.8,15.8-6.8c6.4,0,12,2.1,15.8,6.4c4.3,4.3,6.4,9.8,6.4,15.8v59.1h59.1
		c6,0,11.6,2.1,15.8,6.4c4.3,4.3,6.8,9.8,6.8,15.8s-2.1,11.6-6.8,15.8C1856.3,343.8,1851.2,346,1844.8,346z"/>
</g>
<g>
	<path class="st3" d="M370.7,780.5c0,13.3-3.6,23.9-10.8,31.7c-7.2,7.8-17.1,11.7-29.7,11.7c-5.8,0-11.4-0.5-16.9-1.3
		c-5.4-0.9-9.8-2.2-13.2-4V708.3l16-0.8v35.8c1.7-1,4-1.8,6.8-2.5c2.8-0.7,5.7-1,8.6-1c11.9,0,21.5,3.6,28.6,10.7
		C367.1,757.6,370.7,767.6,370.7,780.5z M316,808.2c3.6,1.5,8.1,2.2,13.6,2.2c8,0,14.1-2.6,18.3-7.8c4.2-5.2,6.3-12.5,6.3-21.8
		c0-9.1-2.1-15.9-6.2-20.6c-4.1-4.6-10.1-7-17.9-7c-2.4,0-4.9,0.4-7.5,1.3c-2.6,0.8-4.8,1.8-6.6,2.9V808.2z"/>
	<path class="st3" d="M429.9,817.5c-10.9,19.1-24.8,30.3-41.6,33.7l-2.7-13.8c5.3-1.1,10.4-3.2,15.3-6.6c4.9-3.3,8.8-7.4,11.8-12.3
		c-8.6-12-15.2-24.2-20-36.5c-4.7-12.3-7.9-25.8-9.5-40.5h16.1c0.8,9.4,2.8,19.3,5.9,29.8c3.1,10.5,8.3,22.1,15.8,34.8
		c5.3-10.5,9.4-20.7,12.3-30.6c2.9-10,4.9-21.3,6.1-34h16C452.6,766.8,444.1,792.1,429.9,817.5z"/>
	<path class="st3" d="M568.6,816.6c-3.7,2.1-8.3,3.9-13.9,5.2c-5.5,1.4-11.7,2.1-18.6,2.1c-10,0-17.7-2.2-23.1-6.7
		c-5.4-4.4-8.1-10.2-8.1-17.4c0-5,1.2-9.2,3.5-12.8c2.3-3.6,5.8-6.4,10.5-8.5c4.6-2.1,10.4-3.2,17.3-3.2c6,0,11.6,0.6,16.8,1.7v-6.7
		c0-5.5-1.6-9.7-4.7-12.7c-3.1-3-7.7-4.4-13.9-4.4c-3.5,0-7.2,0.4-11.1,1.1c-3.9,0.7-7.3,1.7-10.1,2.9l-3.2-12.8
		c3.4-1.4,7.5-2.5,12.4-3.3c4.9-0.8,9.4-1.3,13.5-1.3c10.7,0,18.8,2.7,24.3,8.1c5.5,5.4,8.3,13.1,8.3,23.3V816.6z M537.6,811.8
		c6.4,0,11.6-1.1,15.4-3.3v-20.7c-5.1-1.3-10-1.9-14.9-1.9c-5.2,0-9.3,1.1-12.4,3.2s-4.7,5.5-4.7,10.1c0,4.1,1.4,7.3,4.4,9.4
		C528.2,810.7,532.3,811.8,537.6,811.8z"/>
	<path class="st3" d="M630.7,817.5c-10.9,19.1-24.8,30.3-41.6,33.7l-2.7-13.8c5.3-1.1,10.4-3.2,15.3-6.6c4.9-3.3,8.8-7.4,11.8-12.3
		c-8.6-12-15.2-24.2-20-36.5c-4.7-12.3-7.9-25.8-9.5-40.5h16.1c0.8,9.4,2.8,19.3,5.9,29.8c3.1,10.5,8.3,22.1,15.8,34.8
		c5.3-10.5,9.4-20.7,12.3-30.6c2.9-10,4.9-21.3,6.1-34h16C653.4,766.8,644.9,792.1,630.7,817.5z"/>
	<path class="st3" d="M788.7,821.9h-16v-50.5c0-5.7-1.4-10.2-4.2-13.4s-7.2-4.8-13.1-4.8c-3.2,0-6.5,0.6-10.1,1.7
		c-3.6,1.1-6.5,2.4-8.9,3.9c1.4,4,2.1,8.8,2.1,14.4v48.8h-15.7v-50.5c0-5.7-1.4-10.2-4.2-13.4s-7.1-4.8-12.9-4.8
		c-2.8,0-5.8,0.4-8.9,1.1c-3.1,0.7-5.9,1.7-8.3,3v64.6h-16v-74.7c5-2.3,10.4-4.1,16.3-5.5c5.9-1.3,11.8-2,17.6-2
		c9.6,0,17.2,2.4,22.6,7.3c8.8-4.9,17.8-7.3,27.1-7.3c6.6,0,12.3,1.1,17,3.2c4.7,2.2,8.5,5.5,11.3,10c2.9,4.5,4.3,10.3,4.3,17.3
		V821.9z"/>
	<path class="st3" d="M821,727.7c-3.1,0-5.5-0.9-7.3-2.7c-1.8-1.8-2.7-4.2-2.7-7.1c0-2.7,0.9-5,2.7-6.8c1.8-1.8,4.2-2.7,7.3-2.7
		c3,0,5.3,0.9,7.1,2.7c1.8,1.8,2.7,4.1,2.7,6.8c0,3-0.9,5.3-2.7,7.1C826.3,726.8,823.9,727.7,821,727.7z M829.1,741.7v80.3h-16
		v-80.3H829.1z"/>
	<path class="st3" d="M870.1,821.9h-16v-74.7c4.9-2.3,10.3-4.1,16.5-5.5c6.1-1.3,12.1-2,18-2c11,0,19.4,2.7,25.2,8
		c5.8,5.3,8.7,12.9,8.7,22.6v51.6h-16v-50.5c0-5.8-1.5-10.3-4.6-13.5c-3.1-3.2-7.5-4.7-13.3-4.7c-3.2,0-6.4,0.4-9.7,1.1
		c-3.3,0.7-6.3,1.7-8.8,3V821.9z"/>
	<path class="st3" d="M1011.9,819.7c0,10.3-3.2,18.3-9.7,24c-6.5,5.6-15.4,8.5-26.8,8.5c-4.1,0-8.3-0.3-12.5-0.8
		c-4.2-0.5-8.9-1.8-13.9-3.8l3.3-13c6.9,2.6,14.2,4,22.2,4c6.9,0,12.2-1.6,15.9-4.7c3.7-3.1,5.6-7.4,5.6-12.7v-6.7
		c-2.4,1.3-5.2,2.3-8.2,3c-3.1,0.7-6.1,1.1-9.2,1.1c-5.6,0-10.7-0.8-15.3-2.5c-4.6-1.7-8.5-4.2-11.7-7.4c-3.2-3.3-5.7-7.3-7.4-12
		c-1.7-4.7-2.5-10-2.5-15.9c0-12.6,3.7-22.5,11.2-29.9c7.4-7.4,17.3-11.1,29.5-11.1c4.1,0,8.9,0.5,14.2,1.4
		c5.4,0.9,10.5,2.6,15.4,4.9V819.7z M957.9,779.5c0,7.9,2,14.1,6,18.7c4,4.5,9.6,6.8,16.8,6.8c5.8,0,10.9-1.4,15.2-4.1v-45.1
		c-4.6-1.7-9.2-2.5-13.6-2.5c-7.5,0-13.4,2.4-17.8,7C960.1,765,957.9,771.4,957.9,779.5z"/>
	<path class="st3" d="M1141.3,817.2c-3.6,2-8,3.6-13.2,4.8c-5.2,1.2-10.6,1.8-16.2,1.8c-12.7,0-22.7-3.6-30.1-10.9
		c-7.4-7.3-11.1-17.2-11.1-29.8c0-6.4,0.9-12.3,2.9-17.7c1.9-5.4,4.7-10,8.4-13.8c3.7-3.8,8.2-6.7,13.4-8.8
		c5.2-2.1,11.1-3.1,17.5-3.1c4.2,0,8.4,0.6,12.5,1.9v-33.4l16-0.8V817.2z M1087,782.5c0,8.8,2.2,15.6,6.7,20.5
		c4.5,4.9,10.5,7.4,18,7.4c2.5,0,5.1-0.3,7.6-0.9c2.5-0.6,4.5-1.3,6-2.1v-51.6c-3.9-1.7-7.8-2.5-11.7-2.5c-8.5,0-15.1,2.5-19.7,7.6
		C1089.3,765.9,1087,773.1,1087,782.5z"/>
	<path class="st3" d="M1174.7,727.7c-3.1,0-5.5-0.9-7.3-2.7s-2.7-4.2-2.7-7.1c0-2.7,0.9-5,2.7-6.8s4.2-2.7,7.3-2.7
		c3,0,5.3,0.9,7.1,2.7s2.7,4.1,2.7,6.8c0,3-0.9,5.3-2.7,7.1S1177.7,727.7,1174.7,727.7z M1182.8,741.7v80.3h-16v-80.3H1182.8z"/>
	<path class="st3" d="M1273.4,819.7c0,10.3-3.2,18.3-9.7,24c-6.5,5.6-15.4,8.5-26.8,8.5c-4.1,0-8.3-0.3-12.5-0.8
		c-4.2-0.5-8.9-1.8-13.9-3.8l3.3-13c6.9,2.6,14.2,4,22.2,4c6.9,0,12.2-1.6,15.9-4.7c3.7-3.1,5.6-7.4,5.6-12.7v-6.7
		c-2.4,1.3-5.2,2.3-8.2,3c-3.1,0.7-6.1,1.1-9.2,1.1c-5.6,0-10.7-0.8-15.3-2.5s-8.5-4.2-11.7-7.4c-3.2-3.3-5.7-7.3-7.4-12
		c-1.7-4.7-2.5-10-2.5-15.9c0-12.6,3.7-22.5,11.2-29.9c7.4-7.4,17.3-11.1,29.5-11.1c4.1,0,8.9,0.5,14.2,1.4
		c5.4,0.9,10.5,2.6,15.4,4.9V819.7z M1219.4,779.5c0,7.9,2,14.1,6,18.7c4,4.5,9.6,6.8,16.8,6.8c5.8,0,10.9-1.4,15.2-4.1v-45.1
		c-4.6-1.7-9.2-2.5-13.6-2.5c-7.5,0-13.4,2.4-17.8,7C1221.6,765,1219.4,771.4,1219.4,779.5z"/>
	<path class="st3" d="M1306.5,727.7c-3.1,0-5.5-0.9-7.3-2.7s-2.7-4.2-2.7-7.1c0-2.7,0.9-5,2.7-6.8s4.2-2.7,7.3-2.7
		c3,0,5.3,0.9,7.1,2.7s2.7,4.1,2.7,6.8c0,3-0.9,5.3-2.7,7.1S1309.4,727.7,1306.5,727.7z M1314.5,741.7v80.3h-16v-80.3H1314.5z"/>
	<path class="st3" d="M1379.9,822.3c-4.2,1.1-8.5,1.6-12.8,1.6c-17.1,0-25.7-9.3-25.7-28v-41.2H1330v-13h11.4v-18.4l16-0.8v19.2
		h19.8v13h-19.8v41c0,9.8,4.1,14.7,12.4,14.7c3.4,0,6.4-0.4,9.2-1.1L1379.9,822.3z"/>
	<path class="st3" d="M1453.5,816.6c-3.7,2.1-8.3,3.9-13.9,5.2c-5.5,1.4-11.7,2.1-18.6,2.1c-10,0-17.7-2.2-23.1-6.7
		c-5.4-4.4-8.1-10.2-8.1-17.4c0-5,1.2-9.2,3.5-12.8c2.3-3.6,5.8-6.4,10.5-8.5c4.6-2.1,10.4-3.2,17.3-3.2c6,0,11.6,0.6,16.8,1.7v-6.7
		c0-5.5-1.6-9.7-4.7-12.7c-3.1-3-7.7-4.4-13.9-4.4c-3.5,0-7.2,0.4-11.1,1.1c-3.9,0.7-7.3,1.7-10.1,2.9l-3.2-12.8
		c3.4-1.4,7.5-2.5,12.4-3.3c4.9-0.8,9.4-1.3,13.5-1.3c10.7,0,18.8,2.7,24.3,8.1c5.5,5.4,8.3,13.1,8.3,23.3V816.6z M1422.5,811.8
		c6.4,0,11.6-1.1,15.4-3.3v-20.7c-5.1-1.3-10-1.9-14.9-1.9c-5.2,0-9.3,1.1-12.4,3.2c-3.1,2.2-4.7,5.5-4.7,10.1
		c0,4.1,1.4,7.3,4.4,9.4C1413.1,810.7,1417.2,811.8,1422.5,811.8z"/>
	<path class="st3" d="M1493.1,707.3v89c0,4.7,0.7,8.3,2.2,10.6c1.5,2.3,4,3.5,7.4,3.5c1.8,0,3.3-0.2,4.6-0.5l1.3,12.8
		c-3,0.7-6,1.1-9,1.1c-15,0-22.5-9.1-22.5-27.4v-88.2L1493.1,707.3z"/>
</g>
</svg>
