<?xml version="1.0" encoding="UTF-8"?><svg id="b" xmlns="http://www.w3.org/2000/svg" viewBox="0 0 428.52 608.98"><defs><style>.d{fill:#716d6d;}.e{fill:#2bace2;}</style></defs><g id="c"><path class="e" d="m338.37,236.3c-1.99,0-3.46-1.47-3.46-3.46v-83c0-1.99,1.47-3.46,3.46-3.46s3.46,1.47,3.46,3.46v83c0,1.99-1.56,3.46-3.46,3.46Z"/><path class="e" d="m213.27,304.25c-1.99,0-3.46-1.47-3.46-3.46v-80.75c0-1.99,1.64-3.46,3.63-3.29,1.82,0,3.29,1.47,3.29,3.29v80.57c0,2.16-1.47,3.63-3.46,3.63h0Z"/><path class="e" d="m213.27,166.1c-1.99,0-3.46-1.47-3.46-3.46v-78.24c0-1.99,1.64-3.46,3.63-3.29,1.82,0,3.29,1.47,3.29,3.29v78.24c0,1.9-1.47,3.46-3.46,3.46Z"/><path class="e" d="m188.37,182.78c-.61,0-1.21-.17-1.64-.43l-69.6-37.35c-1.64-.86-2.25-3.2-1.38-4.84s3.03-2.25,4.67-1.38l69.6,37.35c1.64.86,2.42,3.03,1.47,4.84-.52,1.12-1.73,1.82-3.11,1.82Z"/><path class="e" d="m186.3,329.23c-.61,0-1.21-.17-1.82-.43l-72.79-43.4c-1.64-1.04-2.07-3.29-.86-4.84,1.04-1.47,3.03-1.99,4.5-1.21l72.79,43.4c1.64,1.04,2.25,3.2,1.21,4.84-.78,1.04-1.82,1.64-3.03,1.64h0Z"/><path class="e" d="m310.27,108.86c-.61,0-1.21-.17-1.82-.43l-70.98-41.41c-1.64-.86-2.25-3.2-1.21-4.84.86-1.64,3.2-2.25,4.84-1.21l70.98,41.41c1.64.86,2.25,3.2,1.21,4.84-.61,1.04-1.82,1.64-3.03,1.64Z"/><path class="e" d="m335.43,100.65h-.43c-1.99-.17-3.29-1.99-3.03-3.89l5.53-47.9c.17-1.99,1.82-3.29,3.8-3.2,1.99.17,3.29,1.82,3.2,3.8v.17l-5.53,47.9c-.17,1.82-1.73,3.11-3.54,3.11Z"/><path class="e" d="m355.05,115.95c-1.99,0-3.46-1.47-3.46-3.46,0-1.21.61-2.42,1.64-3.03l22.48-13.57c1.64-1.04,3.8-.43,4.84,1.21s.43,3.8-1.21,4.84l-22.48,13.57c-.61.26-1.21.43-1.82.43h0Z"/><path class="e" d="m403.38,153.99c-.43,0-.78,0-1.21-.17l-46.25-16.94c-1.82-.61-2.68-2.68-2.07-4.5s2.68-2.68,4.5-2.07l46.25,17.03c1.82.61,2.68,2.68,2.07,4.5-.52,1.3-1.9,2.16-3.29,2.16h0Z"/><path class="e" d="m382.89,219.61c-1.38,0-2.59-.78-3.2-1.99l-33.72-71.58c-.78-1.82,0-3.89,1.64-4.67,1.82-.78,3.89,0,4.67,1.64l33.72,71.58c.78,1.82,0,3.8-1.64,4.67-.35.17-.95.35-1.47.35h0Z"/><path class="e" d="m357.65,258.43c-1.99,0-3.46-1.47-3.46-3.46,0-1.21.61-2.42,1.82-3.03l40.55-23.34c1.64-.86,3.8-.43,4.84,1.38.86,1.64.43,3.8-1.38,4.84l-40.55,23.17c-.61.26-1.21.43-1.82.43Z"/><path class="e" d="m369.84,302.43c-.86,0-1.99-.43-2.59-1.04l-18.67-19.88c-1.38-1.47-1.21-3.63.26-5.01,1.38-1.21,3.46-1.21,4.84.17l18.67,19.88c1.38,1.38,1.21,3.63-.17,5.01-.52.61-1.47.86-2.33.86h0Z"/><path class="e" d="m330.67,344.36c-2.07,0-3.63-1.64-3.46-3.63l1.82-52.74c0-1.99,1.64-3.46,3.63-3.29,1.99,0,3.46,1.64,3.29,3.63l-1.82,52.74c-.17,1.73-1.64,3.11-3.46,3.29Z"/><path class="e" d="m307.16,366.15c-.26,0-.61,0-.86-.17l-70.03-19.45c-1.82-.61-2.85-2.59-2.25-4.41s2.42-2.85,4.24-2.42l69.94,19.45c1.82.43,3.03,2.42,2.42,4.41-.43,1.56-1.99,2.59-3.46,2.59h0Z"/><path class="e" d="m241.02,330.96c-1.99,0-3.46-1.47-3.46-3.46,0-1.47,1.04-2.85,2.42-3.29l69.77-22.13c1.82-.61,3.8.26,4.5,2.07.61,1.82-.26,3.8-2.07,4.5q-.17,0-.26.17l-69.77,22.13h-1.12Z"/><path class="e" d="m236.01,384.22c-1.21,0-2.42-.78-3.03-1.82l-14.61-26.54c-.86-1.64-.26-3.8,1.38-4.84,1.64-.86,3.8-.26,4.84,1.38l14.61,26.54c.86,1.64.26,3.8-1.38,4.84-.61.35-1.21.43-1.82.43Z"/><path class="e" d="m185.86,383.53c-1.99,0-3.46-1.47-3.46-3.46,0-.61.17-1.38.61-1.99l17.2-26.63c1.04-1.64,3.2-2.25,4.84-1.21s2.25,3.2,1.21,4.84c0,0,0,.17-.17.17l-17.2,26.63c-.78,1.04-1.99,1.64-3.03,1.64h0Z"/><path class="e" d="m199.26,284.19h-.61l-76.51-13.75c-1.99-.26-3.2-2.07-2.85-4.06.26-1.99,2.07-3.2,4.06-2.85h.17l76.51,13.75c1.99.43,3.2,2.25,2.68,4.24-.43,1.47-1.82,2.68-3.46,2.68h0Z"/><path class="e" d="m119.21,248.49c-1.99,0-3.46-1.47-3.46-3.46,0-1.38.78-2.59,1.99-3.2l70.55-36.31c1.82-.86,3.8-.17,4.67,1.64.78,1.64.17,3.63-1.47,4.5l-70.55,36.31c-.61.52-1.21.52-1.73.52h0Z"/><path class="e" d="m69.24,262.06h-.17l-33.03-1.82c-1.99-.17-3.46-1.82-3.29-3.63,0-1.99,1.64-3.29,3.63-3.29h.17l33.03,1.82c1.99.17,3.46,1.82,3.29,3.63s-1.82,3.29-3.63,3.29Z"/><path class="e" d="m72.26,249.44c-.86,0-1.82-.26-2.59-1.04l-47.29-48.24c-1.38-1.38-1.38-3.63,0-5.01s3.63-1.38,5.01,0l47.29,48.24c1.38,1.38,1.38,3.63,0,5.01-.61.69-1.56,1.04-2.42,1.04h0Z"/><path class="e" d="m106.93,238.11c-1.99,0-3.46-1.47-3.46-3.46,0-.61.17-1.04.43-1.64l35.88-68.38c.86-1.64,3.03-2.42,4.67-1.47,1.64.86,2.42,3.03,1.47,4.67l-35.88,68.38c-.61,1.12-1.82,1.9-3.11,1.9h0Z"/><path class="e" d="m71.23,115.95c-.26,0-.61,0-1.04-.17l-25.16-7.35c-1.82-.61-2.85-2.59-2.42-4.41.61-1.82,2.59-2.85,4.41-2.42l25.16,7.35c1.82.61,2.85,2.42,2.42,4.41-.43,1.47-1.73,2.59-3.37,2.59h0Z"/><path class="e" d="m82.29,103.07c-1.47,0-2.85-1.04-3.29-2.42l-10.37-32.42c-.61-1.82.26-3.8,2.07-4.5,1.82-.61,3.8.26,4.5,2.07v.17l10.37,32.42c.61,1.82-.43,3.8-2.25,4.41-.26.17-.52.26-1.04.26h0Z"/><path class="e" d="m101.66,101.86c-.26,0-.43,0-.78-.17-1.99-.43-3.03-2.25-2.68-4.24l14.78-67.35c.43-1.82,2.42-3.03,4.24-2.59s3.03,2.25,2.59,4.06l-14.78,67.35c-.43,1.9-1.73,2.94-3.37,2.94Z"/><path class="e" d="m63.79,310.3c-1.99,0-3.46-1.47-3.46-3.46,0-.61.17-1.38.43-1.82l15.99-25.76c1.04-1.64,3.2-2.07,4.84-1.21,1.64,1.04,2.07,3.2,1.21,4.84l-15.99,25.76c-.78,1.04-1.82,1.64-3.03,1.64Z"/><path class="e" d="m109.87,353.96c-1.64,0-3.03-1.21-3.46-2.68l-13.83-63.72c-.26-1.99.86-3.8,2.85-4.06,1.82-.26,3.63.78,4.06,2.59l13.83,63.72c.43,1.99-.78,3.8-2.68,4.24-.26-.09-.61-.09-.78-.09h0Z"/><path class="e" d="m131.74,366.67c-1.99,0-3.46-1.47-3.46-3.46,0-1.47.86-2.68,2.25-3.29l56.8-22.48c1.82-.61,3.8.26,4.5,2.07.61,1.82-.17,3.63-1.99,4.41l-56.8,22.48c-.52.09-.95.26-1.3.26h0Z"/><path class="e" d="m116.27,107.65c-1.99,0-3.46-1.47-3.46-3.46,0-1.21.61-2.42,1.64-3.03l70.2-42.97c1.64-1.04,3.8-.61,4.84,1.04,1.04,1.64.61,3.8-1.04,4.84,0,0-.17,0-.17.17l-70.03,42.97c-.69.26-1.38.43-1.99.43h0Z"/><path class="e" d="m189.32,48.52h-.26l-54.47-4.5c-1.99-.17-3.29-1.82-3.2-3.8s1.82-3.29,3.8-3.2l54.38,4.5c1.99.17,3.29,1.82,3.2,3.8-.17,1.9-1.64,3.2-3.46,3.2h0Z"/><path class="e" d="m207.13,34.08c-1.47,0-2.85-.86-3.29-2.42l-9.51-26.97c-.61-1.82.26-3.8,2.07-4.5,1.82-.61,3.8.26,4.5,2.07l9.51,26.97c.61,1.82-.26,3.8-2.07,4.5-.35.17-.78.35-1.21.35h0Z"/><path class="e" d="m226.67,36.33c-1.99,0-3.46-1.47-3.46-3.46,0-.78.26-1.64.78-2.25l21.87-25.94c1.21-1.47,3.46-1.64,5.01-.43s1.64,3.46.43,5.01l-21.87,25.94c-.61.69-1.73,1.12-2.77,1.12h0Z"/><path class="e" d="m237.56,49.12c-1.99,0-3.46-1.64-3.46-3.46,0-1.64,1.21-3.03,2.85-3.46l76.25-15.22c1.99-.43,3.8.86,4.06,2.68.43,1.99-.86,3.8-2.68,4.06l-76.25,15.22c-.35.17-.52.17-.78.17Z"/><path class="e" d="m199.87,171.8c-1.38,0-2.59-.78-3.2-1.82l-36.05-67.95c-.86-1.64-.17-3.8,1.47-4.67s3.8-.17,4.67,1.38l36.05,67.95c.86,1.64.26,3.8-1.47,4.67-.43.26-.86.43-1.47.43h0Z"/><path class="e" d="m229.26,171.8c-1.99,0-3.46-1.47-3.46-3.46,0-.61.17-1.21.43-1.82l42.19-73.57c1.04-1.64,3.2-2.07,4.84-1.21s2.07,3.03,1.21,4.67l-42.19,73.57c-.61,1.21-1.82,1.82-3.03,1.82Z"/><path class="e" d="m282.09,80.33c-.61,0-1.38-.17-1.82-.61-1.64-1.04-2.07-3.2-1.04-4.84l19.71-31.38c1.04-1.64,3.2-2.07,4.84-1.04,1.64,1.04,2.07,3.2,1.04,4.84l-19.71,31.38c-.69,1.04-1.82,1.64-3.03,1.64Z"/><path class="e" d="m327.65,195.75h-86.63c-1.99,0-3.46-1.47-3.46-3.46s1.47-3.46,3.46-3.46h86.63c1.99,0,3.46,1.47,3.46,3.46.17,1.99-1.56,3.46-3.46,3.46Z"/><path class="e" d="m270.24,166.7c-1.99,0-3.46-1.47-3.46-3.46,0-1.38.78-2.59,1.99-3.2l40.98-21.27c1.64-.86,3.8-.26,4.67,1.47.86,1.64.26,3.8-1.47,4.67l-41.07,21.35c-.61.26-1.21.43-1.64.43h0Z"/><path class="e" d="m305.34,122.26l-20.84-.78c-1.99-.17-3.46-1.82-3.29-3.8.17-1.82,1.64-3.2,3.46-3.29h.17l20.66.78c1.99,0,3.46,1.64,3.46,3.63s-1.64,3.54-3.63,3.46Z"/><path class="e" d="m308.45,250.3c-.61,0-1.21-.17-1.82-.43l-70.81-41.32c-1.64-1.04-2.07-3.2-1.21-4.84,1.04-1.64,3.03-2.07,4.67-1.21l70.81,41.32c1.64,1.04,2.25,3.2,1.21,4.84-.52,1.04-1.64,1.64-2.85,1.64Z"/><path class="e" d="m87.05,238.11c-1.99,0-3.46-1.47-3.46-3.46v-12.19c0-1.99,1.47-3.63,3.29-3.63,1.99,0,3.63,1.47,3.63,3.29v12.45c.09,1.9-1.56,3.54-3.46,3.54h0Z"/><path class="e" d="m87.05,207.51c-1.99,0-3.46-1.47-3.46-3.46v-52.48c0-1.99,1.64-3.46,3.63-3.29,1.82,0,3.29,1.47,3.29,3.29v52.48c.09,1.82-1.56,3.46-3.46,3.46Z"/><path class="e" d="m27.22,162.29c-1.99,0-3.46-1.47-3.46-3.46,0-1.38.78-2.59,1.99-3.2l42.45-21.53c1.64-.86,3.8-.26,4.84,1.38.86,1.64.26,3.8-1.38,4.84-.17,0-.17.17-.26.17l-42.62,21.7c-.52,0-1.12.09-1.56.09h0Z"/><path class="e" d="m255.63,283.76c-1.99,0-3.46-1.64-3.46-3.63,0-1.64,1.21-3.03,2.85-3.29l49.88-9.34c1.99-.26,3.8,1.04,4.06,2.85.26,1.82-.86,3.63-2.68,3.89l-49.88,9.34c-.35.17-.52.17-.78.17Z"/><path class="e" d="m213.7,85.95c-16.43,0-29.65-13.23-29.65-29.65s13.23-29.65,29.65-29.65,29.65,13.23,29.65,29.65c.09,16.25-13.23,29.65-29.65,29.65Zm0-52.48c-12.54,0-22.56,10.12-22.56,22.56s10.12,22.56,22.56,22.56,22.56-10.12,22.56-22.56-10.03-22.56-22.56-22.56Z"/><path class="e" d="m213.7,358.46c-16.43,0-29.65-13.23-29.65-29.65s13.23-29.65,29.65-29.65,29.65,13.23,29.65,29.65c.09,16.25-13.23,29.57-29.65,29.65Zm0-52.39c-12.54,0-22.56,10.12-22.56,22.56s10.12,22.56,22.56,22.56,22.56-10.12,22.56-22.56-10.03-22.56-22.56-22.56Z"/><path class="e" d="m331.71,290.07c-16.43,0-29.65-13.23-29.65-29.65s13.23-29.65,29.65-29.65,29.65,13.23,29.65,29.65-13.4,29.65-29.65,29.65Zm0-52.3c-12.54,0-22.56,10.12-22.56,22.56s10.03,22.65,22.56,22.65,22.56-10.12,22.56-22.56-10.03-22.65-22.56-22.65Z"/><path class="e" d="m96.04,290.07c-16.43,0-29.65-13.23-29.65-29.65s13.23-29.65,29.65-29.65,29.65,13.23,29.65,29.65-13.23,29.65-29.65,29.65Zm0-52.3c-12.54,0-22.56,10.12-22.56,22.56s10.12,22.56,22.56,22.56,22.56-10.12,22.56-22.56-10.03-22.56-22.56-22.56Z"/><path class="e" d="m331.71,153.99c-16.43,0-29.65-13.23-29.65-29.65s13.23-29.65,29.65-29.65,29.65,13.23,29.65,29.65-13.4,29.57-29.65,29.65Zm0-52.39c-12.54,0-22.56,10.12-22.56,22.56s10.12,22.56,22.56,22.56,22.56-10.12,22.56-22.56-10.03-22.56-22.56-22.56Z"/><path class="e" d="m96.04,153.99c-16.43,0-29.65-13.23-29.65-29.65s13.23-29.65,29.65-29.65,29.65,13.23,29.65,29.65-13.23,29.57-29.65,29.65Zm0-52.39c-12.54,0-22.56,10.12-22.56,22.56s10.12,22.56,22.56,22.56,22.56-10.12,22.56-22.56-10.03-22.56-22.56-22.56Z"/><path class="e" d="m213.87,222.12c-16.43,0-29.65-13.23-29.65-29.65s13.23-29.65,29.65-29.65,29.65,13.23,29.65,29.65-13.23,29.65-29.65,29.65Zm0-52.3c-12.54,0-22.56,10.12-22.56,22.56s10.12,22.56,22.56,22.56,22.56-10.12,22.56-22.56-10.03-22.56-22.56-22.56Z"/><path class="d" d="m83.54,608.98v-50.4h15.41c3.74,0,7.16.59,10.26,1.76,3.1,1.18,5.72,2.86,7.88,5.04,2.16,2.18,3.8,4.85,4.93,7.99s1.69,6.59,1.69,10.33-.58,7.26-1.73,10.4c-1.15,3.14-2.8,5.82-4.93,8.03-2.14,2.21-4.75,3.9-7.85,5.08-3.1,1.18-6.52,1.76-10.26,1.76h-15.41Zm32.33-25.27c0-2.83-.35-5.4-1.04-7.7-.7-2.3-1.74-4.27-3.13-5.9-1.39-1.63-3.18-2.88-5.36-3.74-2.19-.86-4.72-1.3-7.6-1.3h-7.7v37.44h7.7c3.6,0,6.64-.67,9.11-2.02,2.47-1.34,4.43-3.4,5.87-6.16,1.44-2.76,2.16-6.3,2.16-10.62Z"/><path class="d" d="m180.16,608.98h-8.35l-7.92-14.62c-1.1-1.92-2.24-3.3-3.42-4.14-1.18-.84-2.68-1.26-4.5-1.26h-4.46v20.02h-7.56v-50.4h13.25c6.24,0,11.06,1.22,14.47,3.67,3.41,2.45,5.11,6.07,5.11,10.87,0,2.59-.46,4.82-1.37,6.7-.91,1.87-2.21,3.38-3.89,4.54-1.68,1.15-3.7,1.92-6.05,2.3,1.1.43,2.12,1.17,3.06,2.2.94,1.03,1.93,2.51,2.99,4.43l8.64,15.7Zm-23.26-43.92h-5.4v17.42h5.4c4.03,0,7.06-.7,9.07-2.09,2.02-1.39,3.02-3.62,3.02-6.7,0-1.58-.3-3-.9-4.25-.6-1.25-1.74-2.29-3.42-3.13-1.68-.84-4.27-1.26-7.78-1.26Z"/><path class="d" d="m199.39,608.98v-50.4h7.49v50.4h-7.49Z"/><path class="d" d="m250.87,608.98h-8.42c-7.2-15.36-12.91-32.16-17.14-50.4h7.78c1.82,7.78,3.97,15.58,6.44,23.4,2.47,7.82,4.86,14.4,7.16,19.73,1.63-3.79,3.35-8.35,5.15-13.68,1.8-5.33,3.42-10.61,4.86-15.84,1.44-5.23,2.62-9.77,3.53-13.61h7.78c-4.22,18.24-9.94,35.04-17.14,50.4Z"/><path class="d" d="m316.67,602.5v6.48h-30.24v-50.4h30.24v6.48h-22.75v14.9h19.51v6.48h-19.51v16.06h22.75Z"/><path class="d" d="m53.47,509.44c-3.11,1.78-6.98,3.24-11.64,4.39s-9.87,1.73-15.63,1.73c-8.42,0-14.9-1.86-19.42-5.59-4.52-3.72-6.78-8.6-6.78-14.63,0-4.17.97-7.76,2.93-10.77,1.95-3.01,4.88-5.41,8.78-7.18,3.9-1.77,8.73-2.66,14.5-2.66,5.05,0,9.75.49,14.1,1.46v-5.59c0-4.61-1.31-8.16-3.92-10.64-2.62-2.48-6.5-3.72-11.64-3.72-2.93,0-6.03.31-9.31.93-3.28.62-6.12,1.42-8.51,2.39l-2.66-10.77c2.84-1.15,6.32-2.08,10.44-2.79,4.12-.71,7.91-1.06,11.37-1.06,8.96,0,15.76,2.26,20.42,6.78,4.65,4.52,6.98,11.04,6.98,19.55v38.17Zm-26.07-3.99c5.41,0,9.71-.93,12.9-2.79v-17.42c-4.26-1.06-8.42-1.6-12.5-1.6-4.35,0-7.83.91-10.44,2.73-2.62,1.82-3.92,4.63-3.92,8.45,0,3.46,1.22,6.1,3.66,7.91,2.44,1.82,5.87,2.73,10.31,2.73Z"/><path class="d" d="m106.13,510.24c-9.13,16.05-20.79,25.49-34.98,28.33l-2.26-11.57c4.43-.89,8.71-2.73,12.83-5.52s7.42-6.23,9.91-10.31c-7.18-10.11-12.77-20.33-16.76-30.66-3.99-10.33-6.65-21.66-7.98-33.98h13.57c.71,7.89,2.35,16.25,4.92,25.07,2.57,8.82,7,18.55,13.3,29.19,4.43-8.78,7.87-17.36,10.31-25.74,2.44-8.38,4.14-17.89,5.12-28.53h13.43c-2.31,21.1-9.44,42.34-21.41,63.71Z"/><path class="d" d="m239.4,513.96h-13.43v-42.43c0-4.79-1.18-8.53-3.53-11.24-2.35-2.7-6.01-4.06-10.97-4.06-2.66,0-5.5.47-8.51,1.4-3.01.93-5.5,2.02-7.45,3.26,1.15,3.37,1.73,7.4,1.73,12.1v40.96h-13.17v-42.43c0-4.79-1.18-8.53-3.52-11.24-2.35-2.7-5.96-4.06-10.84-4.06-2.39,0-4.9.31-7.51.93-2.62.62-4.94,1.46-6.98,2.53v54.26h-13.43v-62.78c4.17-1.95,8.73-3.48,13.7-4.59,4.96-1.11,9.89-1.66,14.76-1.66,8.07,0,14.41,2.04,19.02,6.12,7.36-4.08,14.94-6.12,22.74-6.12,5.59,0,10.35.91,14.3,2.73,3.94,1.82,7.12,4.61,9.51,8.38,2.39,3.77,3.59,8.62,3.59,14.56v43.36Z"/><path class="d" d="m267.06,434.83c-2.57,0-4.61-.75-6.12-2.26-1.51-1.51-2.26-3.5-2.26-5.98,0-2.3.75-4.21,2.26-5.72,1.51-1.51,3.55-2.26,6.12-2.26s4.48.75,5.99,2.26c1.51,1.51,2.26,3.42,2.26,5.72,0,2.48-.75,4.48-2.26,5.98s-3.5,2.26-5.99,2.26Zm6.78,11.7v67.43h-13.43v-67.43h13.43Z"/><path class="d" d="m308.82,513.96h-13.43v-62.78c4.08-1.95,8.69-3.48,13.83-4.59,5.14-1.11,10.2-1.66,15.16-1.66,9.22,0,16.27,2.24,21.15,6.72,4.88,4.48,7.32,10.8,7.32,18.95v43.36h-13.43v-42.43c0-4.88-1.29-8.65-3.86-11.31-2.57-2.66-6.3-3.99-11.17-3.99-2.66,0-5.39.31-8.18.93-2.79.62-5.25,1.46-7.38,2.53v54.26Z"/><path class="d" d="m428.52,512.1c0,8.69-2.73,15.41-8.18,20.15-5.45,4.74-12.97,7.12-22.54,7.12-3.46,0-6.96-.22-10.51-.67-3.55-.45-7.45-1.51-11.7-3.19l2.79-10.91c5.76,2.22,11.97,3.33,18.62,3.33,5.76,0,10.22-1.31,13.37-3.92,3.15-2.62,4.72-6.18,4.72-10.71v-5.59c-2.04,1.06-4.35,1.91-6.92,2.53-2.57.62-5.14.93-7.71.93-4.7,0-8.98-.71-12.83-2.13-3.86-1.42-7.14-3.5-9.84-6.25-2.71-2.75-4.77-6.1-6.18-10.04-1.42-3.94-2.13-8.4-2.13-13.37,0-10.55,3.13-18.93,9.38-25.14,6.25-6.21,14.52-9.31,24.8-9.31,3.46,0,7.45.4,11.97,1.2,4.52.8,8.82,2.17,12.9,4.12v61.84Zm-45.35-33.78c0,6.65,1.68,11.88,5.05,15.69,3.37,3.81,8.07,5.72,14.1,5.72,4.88,0,9.13-1.15,12.77-3.46v-37.91c-3.9-1.42-7.71-2.13-11.44-2.13-6.3,0-11.28,1.97-14.96,5.92-3.68,3.95-5.52,9.33-5.52,16.16Z"/></g></svg>