<?xml version="1.0" encoding="UTF-8"?><svg id="b" xmlns="http://www.w3.org/2000/svg" viewBox="0 0 445.15 625.61"><defs><style>.d{letter-spacing:0em;}.e{letter-spacing:0em;}.f{font-size:72px;letter-spacing:.15em;}.f,.g{fill:#716d6d;font-family:DiodrumW03-Medium, DiodrumW03-Medium;font-weight:500;}.h{fill:#2bace2;}.g{font-size:133px;}</style></defs><g id="c"><path class="h" d="m346.84,236.3c-1.99,0-3.46-1.47-3.46-3.46v-83c0-1.99,1.47-3.46,3.46-3.46s3.46,1.47,3.46,3.46v83c0,1.99-1.56,3.46-3.46,3.46Z"/><path class="h" d="m221.74,304.25c-1.99,0-3.46-1.47-3.46-3.46v-80.75c0-1.99,1.64-3.46,3.63-3.29,1.82,0,3.29,1.47,3.29,3.29v80.57c0,2.16-1.47,3.63-3.46,3.63h0Z"/><path class="h" d="m221.74,166.1c-1.99,0-3.46-1.47-3.46-3.46v-78.24c0-1.99,1.64-3.46,3.63-3.29,1.82,0,3.29,1.47,3.29,3.29v78.24c0,1.9-1.47,3.46-3.46,3.46Z"/><path class="h" d="m196.84,182.78c-.61,0-1.21-.17-1.64-.43l-69.6-37.35c-1.64-.86-2.25-3.2-1.38-4.84.86-1.64,3.03-2.25,4.67-1.38l69.6,37.35c1.64.86,2.42,3.03,1.47,4.84-.52,1.12-1.73,1.82-3.11,1.82Z"/><path class="h" d="m194.77,329.23c-.61,0-1.21-.17-1.82-.43l-72.79-43.4c-1.64-1.04-2.07-3.29-.86-4.84,1.04-1.47,3.03-1.99,4.5-1.21l72.79,43.4c1.64,1.04,2.25,3.2,1.21,4.84-.78,1.04-1.82,1.64-3.03,1.64h0Z"/><path class="h" d="m318.74,108.86c-.61,0-1.21-.17-1.82-.43l-70.98-41.41c-1.64-.86-2.25-3.2-1.21-4.84.86-1.64,3.2-2.25,4.84-1.21l70.98,41.41c1.64.86,2.25,3.2,1.21,4.84-.61,1.04-1.82,1.64-3.03,1.64Z"/><path class="h" d="m343.9,100.65h-.43c-1.99-.17-3.29-1.99-3.03-3.89l5.53-47.9c.17-1.99,1.82-3.29,3.8-3.2,1.99.17,3.29,1.82,3.2,3.8v.17l-5.53,47.9c-.17,1.82-1.73,3.11-3.54,3.11Z"/><path class="h" d="m363.53,115.95c-1.99,0-3.46-1.47-3.46-3.46,0-1.21.61-2.42,1.64-3.03l22.48-13.57c1.64-1.04,3.8-.43,4.84,1.21,1.04,1.64.43,3.8-1.21,4.84l-22.48,13.57c-.61.26-1.21.43-1.82.43h0Z"/><path class="h" d="m411.85,153.99c-.43,0-.78,0-1.21-.17l-46.25-16.94c-1.82-.61-2.68-2.68-2.07-4.5.61-1.82,2.68-2.68,4.5-2.07l46.25,17.03c1.82.61,2.68,2.68,2.07,4.5-.52,1.3-1.9,2.16-3.29,2.16h0Z"/><path class="h" d="m391.36,219.61c-1.38,0-2.59-.78-3.2-1.99l-33.72-71.58c-.78-1.82,0-3.89,1.64-4.67,1.82-.78,3.89,0,4.67,1.64l33.72,71.58c.78,1.82,0,3.8-1.64,4.67-.35.17-.95.35-1.47.35h0Z"/><path class="h" d="m366.12,258.43c-1.99,0-3.46-1.47-3.46-3.46,0-1.21.61-2.42,1.82-3.03l40.55-23.34c1.64-.86,3.8-.43,4.84,1.38.86,1.64.43,3.8-1.38,4.84l-40.55,23.17c-.61.26-1.21.43-1.82.43Z"/><path class="h" d="m378.31,302.43c-.86,0-1.99-.43-2.59-1.04l-18.67-19.88c-1.38-1.47-1.21-3.63.26-5.01,1.38-1.21,3.46-1.21,4.84.17l18.67,19.88c1.38,1.38,1.21,3.63-.17,5.01-.52.61-1.47.86-2.33.86h0Z"/><path class="h" d="m339.15,344.36c-2.07,0-3.63-1.64-3.46-3.63l1.82-52.74c0-1.99,1.64-3.46,3.63-3.29,1.99,0,3.46,1.64,3.29,3.63l-1.82,52.74c-.17,1.73-1.64,3.11-3.46,3.29Z"/><path class="h" d="m315.63,366.15c-.26,0-.61,0-.86-.17l-70.03-19.45c-1.82-.61-2.85-2.59-2.25-4.41s2.42-2.85,4.24-2.42l69.94,19.45c1.82.43,3.03,2.42,2.42,4.41-.43,1.56-1.99,2.59-3.46,2.59h0Z"/><path class="h" d="m249.49,330.96c-1.99,0-3.46-1.47-3.46-3.46,0-1.47,1.04-2.85,2.42-3.29l69.77-22.13c1.82-.61,3.8.26,4.5,2.07.61,1.82-.26,3.8-2.07,4.5q-.17,0-.26.17l-69.77,22.13h-1.12Z"/><path class="h" d="m244.48,384.22c-1.21,0-2.42-.78-3.03-1.82l-14.61-26.54c-.86-1.64-.26-3.8,1.38-4.84,1.64-.86,3.8-.26,4.84,1.38l14.61,26.54c.86,1.64.26,3.8-1.38,4.84-.61.35-1.21.43-1.82.43Z"/><path class="h" d="m194.34,383.53c-1.99,0-3.46-1.47-3.46-3.46,0-.61.17-1.38.61-1.99l17.2-26.63c1.04-1.64,3.2-2.25,4.84-1.21s2.25,3.2,1.21,4.84c0,0,0,.17-.17.17l-17.2,26.63c-.78,1.04-1.99,1.64-3.03,1.64h0Z"/><path class="h" d="m207.74,284.19h-.61l-76.51-13.75c-1.99-.26-3.2-2.07-2.85-4.06.26-1.99,2.07-3.2,4.06-2.85h.17l76.51,13.75c1.99.43,3.2,2.25,2.68,4.24-.43,1.47-1.82,2.68-3.46,2.68h0Z"/><path class="h" d="m127.68,248.49c-1.99,0-3.46-1.47-3.46-3.46,0-1.38.78-2.59,1.99-3.2l70.55-36.31c1.82-.86,3.8-.17,4.67,1.64.78,1.64.17,3.63-1.47,4.5l-70.55,36.31c-.61.52-1.21.52-1.73.52h0Z"/><path class="h" d="m77.71,262.06h-.17l-33.03-1.82c-1.99-.17-3.46-1.82-3.29-3.63,0-1.99,1.64-3.29,3.63-3.29h.17l33.03,1.82c1.99.17,3.46,1.82,3.29,3.63-.17,1.82-1.82,3.29-3.63,3.29Z"/><path class="h" d="m80.74,249.44c-.86,0-1.82-.26-2.59-1.04l-47.29-48.24c-1.38-1.38-1.38-3.63,0-5.01s3.63-1.38,5.01,0l47.29,48.24c1.38,1.38,1.38,3.63,0,5.01-.61.69-1.56,1.04-2.42,1.04h0Z"/><path class="h" d="m115.41,238.11c-1.99,0-3.46-1.47-3.46-3.46,0-.61.17-1.04.43-1.64l35.88-68.38c.86-1.64,3.03-2.42,4.67-1.47,1.64.86,2.42,3.03,1.47,4.67l-35.88,68.38c-.61,1.12-1.82,1.9-3.11,1.9h0Z"/><path class="h" d="m79.7,115.95c-.26,0-.61,0-1.04-.17l-25.16-7.35c-1.82-.61-2.85-2.59-2.42-4.41.61-1.82,2.59-2.85,4.41-2.42l25.16,7.35c1.82.61,2.85,2.42,2.42,4.41-.43,1.47-1.73,2.59-3.37,2.59h0Z"/><path class="h" d="m90.77,103.07c-1.47,0-2.85-1.04-3.29-2.42l-10.37-32.42c-.61-1.82.26-3.8,2.07-4.5,1.82-.61,3.8.26,4.5,2.07v.17l10.37,32.42c.61,1.82-.43,3.8-2.25,4.41-.26.17-.52.26-1.04.26h0Z"/><path class="h" d="m110.13,101.86c-.26,0-.43,0-.78-.17-1.99-.43-3.03-2.25-2.68-4.24l14.78-67.35c.43-1.82,2.42-3.03,4.24-2.59,1.82.43,3.03,2.25,2.59,4.06l-14.78,67.35c-.43,1.9-1.73,2.94-3.37,2.94Z"/><path class="h" d="m72.26,310.3c-1.99,0-3.46-1.47-3.46-3.46,0-.61.17-1.38.43-1.82l15.99-25.76c1.04-1.64,3.2-2.07,4.84-1.21,1.64,1.04,2.07,3.2,1.21,4.84l-15.99,25.76c-.78,1.04-1.82,1.64-3.03,1.64Z"/><path class="h" d="m118.34,353.96c-1.64,0-3.03-1.21-3.46-2.68l-13.83-63.72c-.26-1.99.86-3.8,2.85-4.06,1.82-.26,3.63.78,4.06,2.59l13.83,63.72c.43,1.99-.78,3.8-2.68,4.24-.26-.09-.61-.09-.78-.09h0Z"/><path class="h" d="m140.22,366.67c-1.99,0-3.46-1.47-3.46-3.46,0-1.47.86-2.68,2.25-3.29l56.8-22.48c1.82-.61,3.8.26,4.5,2.07.61,1.82-.17,3.63-1.99,4.41l-56.8,22.48c-.52.09-.95.26-1.3.26h0Z"/><path class="h" d="m124.74,107.65c-1.99,0-3.46-1.47-3.46-3.46,0-1.21.61-2.42,1.64-3.03l70.2-42.97c1.64-1.04,3.8-.61,4.84,1.04,1.04,1.64.61,3.8-1.04,4.84,0,0-.17,0-.17.17l-70.03,42.97c-.69.26-1.38.43-1.99.43h0Z"/><path class="h" d="m197.8,48.52h-.26l-54.47-4.5c-1.99-.17-3.29-1.82-3.2-3.8.09-1.99,1.82-3.29,3.8-3.2l54.38,4.5c1.99.17,3.29,1.82,3.2,3.8-.17,1.9-1.64,3.2-3.46,3.2h0Z"/><path class="h" d="m215.6,34.08c-1.47,0-2.85-.86-3.29-2.42l-9.51-26.97c-.61-1.82.26-3.8,2.07-4.5,1.82-.61,3.8.26,4.5,2.07l9.51,26.97c.61,1.82-.26,3.8-2.07,4.5-.35.17-.78.35-1.21.35h0Z"/><path class="h" d="m235.14,36.33c-1.99,0-3.46-1.47-3.46-3.46,0-.78.26-1.64.78-2.25l21.87-25.94c1.21-1.47,3.46-1.64,5.01-.43,1.56,1.21,1.64,3.46.43,5.01l-21.87,25.94c-.61.69-1.73,1.12-2.77,1.12h0Z"/><path class="h" d="m246.04,49.12c-1.99,0-3.46-1.64-3.46-3.46,0-1.64,1.21-3.03,2.85-3.46l76.25-15.22c1.99-.43,3.8.86,4.06,2.68.43,1.99-.86,3.8-2.68,4.06l-76.25,15.22c-.35.17-.52.17-.78.17Z"/><path class="h" d="m208.34,171.8c-1.38,0-2.59-.78-3.2-1.82l-36.05-67.95c-.86-1.64-.17-3.8,1.47-4.67,1.64-.86,3.8-.17,4.67,1.38l36.05,67.95c.86,1.64.26,3.8-1.47,4.67-.43.26-.86.43-1.47.43h0Z"/><path class="h" d="m237.74,171.8c-1.99,0-3.46-1.47-3.46-3.46,0-.61.17-1.21.43-1.82l42.19-73.57c1.04-1.64,3.2-2.07,4.84-1.21,1.64.86,2.07,3.03,1.21,4.67l-42.19,73.57c-.61,1.21-1.82,1.82-3.03,1.82Z"/><path class="h" d="m290.56,80.33c-.61,0-1.38-.17-1.82-.61-1.64-1.04-2.07-3.2-1.04-4.84l19.71-31.38c1.04-1.64,3.2-2.07,4.84-1.04s2.07,3.2,1.04,4.84l-19.71,31.38c-.69,1.04-1.82,1.64-3.03,1.64Z"/><path class="h" d="m336.12,195.75h-86.63c-1.99,0-3.46-1.47-3.46-3.46s1.47-3.46,3.46-3.46h86.63c1.99,0,3.46,1.47,3.46,3.46.17,1.99-1.56,3.46-3.46,3.46Z"/><path class="h" d="m278.72,166.7c-1.99,0-3.46-1.47-3.46-3.46,0-1.38.78-2.59,1.99-3.2l40.98-21.27c1.64-.86,3.8-.26,4.67,1.47.86,1.64.26,3.8-1.47,4.67l-41.07,21.35c-.61.26-1.21.43-1.64.43h0Z"/><path class="h" d="m313.82,122.26l-20.84-.78c-1.99-.17-3.46-1.82-3.29-3.8.17-1.82,1.64-3.2,3.46-3.29h.17l20.66.78c1.99,0,3.46,1.64,3.46,3.63s-1.64,3.54-3.63,3.46Z"/><path class="h" d="m316.93,250.3c-.61,0-1.21-.17-1.82-.43l-70.81-41.32c-1.64-1.04-2.07-3.2-1.21-4.84,1.04-1.64,3.03-2.07,4.67-1.21l70.81,41.32c1.64,1.04,2.25,3.2,1.21,4.84-.52,1.04-1.64,1.64-2.85,1.64Z"/><path class="h" d="m95.52,238.11c-1.99,0-3.46-1.47-3.46-3.46v-12.19c0-1.99,1.47-3.63,3.29-3.63,1.99,0,3.63,1.47,3.63,3.29v12.45c.09,1.9-1.56,3.54-3.46,3.54h0Z"/><path class="h" d="m95.52,207.51c-1.99,0-3.46-1.47-3.46-3.46v-52.48c0-1.99,1.64-3.46,3.63-3.29,1.82,0,3.29,1.47,3.29,3.29v52.48c.09,1.82-1.56,3.46-3.46,3.46Z"/><path class="h" d="m35.69,162.29c-1.99,0-3.46-1.47-3.46-3.46,0-1.38.78-2.59,1.99-3.2l42.45-21.53c1.64-.86,3.8-.26,4.84,1.38.86,1.64.26,3.8-1.38,4.84-.17,0-.17.17-.26.17l-42.62,21.7c-.52,0-1.12.09-1.56.09h0Z"/><path class="h" d="m264.11,283.76c-1.99,0-3.46-1.64-3.46-3.63,0-1.64,1.21-3.03,2.85-3.29l49.88-9.34c1.99-.26,3.8,1.04,4.06,2.85.26,1.82-.86,3.63-2.68,3.89l-49.88,9.34c-.35.17-.52.17-.78.17Z"/><path class="h" d="m222.18,85.95c-16.43,0-29.65-13.23-29.65-29.65s13.23-29.65,29.65-29.65,29.65,13.23,29.65,29.65c.09,16.25-13.23,29.65-29.65,29.65Zm0-52.48c-12.54,0-22.56,10.12-22.56,22.56s10.12,22.56,22.56,22.56,22.56-10.12,22.56-22.56-10.03-22.56-22.56-22.56Z"/><path class="h" d="m222.18,358.46c-16.43,0-29.65-13.23-29.65-29.65s13.23-29.65,29.65-29.65,29.65,13.23,29.65,29.65c.09,16.25-13.23,29.57-29.65,29.65Zm0-52.39c-12.54,0-22.56,10.12-22.56,22.56s10.12,22.56,22.56,22.56,22.56-10.12,22.56-22.56-10.03-22.56-22.56-22.56Z"/><path class="h" d="m340.18,290.07c-16.43,0-29.65-13.23-29.65-29.65s13.23-29.65,29.65-29.65,29.65,13.23,29.65,29.65-13.4,29.65-29.65,29.65Zm0-52.3c-12.54,0-22.56,10.12-22.56,22.56s10.03,22.65,22.56,22.65,22.56-10.12,22.56-22.56-10.03-22.65-22.56-22.65Z"/><path class="h" d="m104.51,290.07c-16.43,0-29.65-13.23-29.65-29.65s13.23-29.65,29.65-29.65,29.65,13.23,29.65,29.65-13.23,29.65-29.65,29.65Zm0-52.3c-12.54,0-22.56,10.12-22.56,22.56s10.12,22.56,22.56,22.56,22.56-10.12,22.56-22.56-10.03-22.56-22.56-22.56Z"/><path class="h" d="m340.18,153.99c-16.43,0-29.65-13.23-29.65-29.65s13.23-29.65,29.65-29.65,29.65,13.23,29.65,29.65-13.4,29.57-29.65,29.65Zm0-52.39c-12.54,0-22.56,10.12-22.56,22.56s10.12,22.56,22.56,22.56,22.56-10.12,22.56-22.56-10.03-22.56-22.56-22.56Z"/><path class="h" d="m104.51,153.99c-16.43,0-29.65-13.23-29.65-29.65s13.23-29.65,29.65-29.65,29.65,13.23,29.65,29.65-13.23,29.57-29.65,29.65Zm0-52.39c-12.54,0-22.56,10.12-22.56,22.56s10.12,22.56,22.56,22.56,22.56-10.12,22.56-22.56-10.03-22.56-22.56-22.56Z"/><path class="h" d="m222.35,222.12c-16.43,0-29.65-13.23-29.65-29.65s13.23-29.65,29.65-29.65,29.65,13.23,29.65,29.65-13.23,29.65-29.65,29.65Zm0-52.3c-12.54,0-22.56,10.12-22.56,22.56s10.12,22.56,22.56,22.56,22.56-10.12,22.56-22.56-10.03-22.56-22.56-22.56Z"/><text class="f" transform="translate(128.97 608.98)"><tspan x="0" y="0">MAP</tspan></text><text class="g" transform="translate(0 513.96)"><tspan class="d" x="0" y="0">a</tspan><tspan class="e" x="68.5" y="0">yming</tspan></text></g></svg>