<?xml version="1.0" encoding="UTF-8"?><svg id="b" xmlns="http://www.w3.org/2000/svg" viewBox="0 0 869.9 360.33"><defs><style>.d{fill:#716d6d;}.e{fill:#2bace2;}</style></defs><g id="c"><path class="e" d="m297.25,221.58c-1.84,0-3.25-1.41-3.25-3.25v-77.85c0-1.84,1.41-3.25,3.25-3.25s3.25,1.41,3.25,3.25v77.85c0,1.84-1.41,3.25-3.25,3.25Z"/><path class="e" d="m179.97,285.3c-1.84,0-3.25-1.41-3.25-3.25v-75.73c0-1.84,1.55-3.25,3.39-3.11,1.7,0,3.11,1.41,3.11,3.11v75.59c0,1.98-1.41,3.39-3.25,3.39h0Z"/><path class="e" d="m179.97,155.74c-1.84,0-3.25-1.41-3.25-3.25v-73.33c0-1.84,1.55-3.25,3.39-3.11,1.7,0,3.11,1.41,3.11,3.11v73.33c0,1.84-1.41,3.25-3.25,3.25h0Z"/><path class="e" d="m156.66,171.42c-.57,0-1.13-.14-1.55-.42l-65.28-35.04c-1.55-.85-2.12-2.97-1.27-4.52.85-1.55,2.83-2.12,4.38-1.27l65.28,35.04c1.55.85,2.26,2.83,1.41,4.52-.57.99-1.7,1.7-2.97,1.7h0Z"/><path class="e" d="m154.68,308.76c-.57,0-1.13-.14-1.7-.42l-68.24-40.69c-1.55-.99-1.98-3.11-.85-4.52.99-1.41,2.83-1.84,4.24-1.13l68.24,40.69c1.55.99,2.12,2.97,1.13,4.52-.71.99-1.7,1.55-2.83,1.55h0Z"/><path class="e" d="m270.96,102.05c-.57,0-1.13-.14-1.7-.42l-66.55-38.86c-1.55-.85-2.12-2.97-1.13-4.52.85-1.55,2.97-2.12,4.52-1.13l66.55,38.86c1.55.85,2.12,2.97,1.13,4.52-.57.99-1.7,1.55-2.83,1.55h0Z"/><path class="e" d="m294.56,94.42h-.42c-1.84-.14-3.11-1.84-2.83-3.67l5.23-44.93c.14-1.84,1.7-3.11,3.53-2.97,1.84.14,3.11,1.7,2.97,3.53v.14l-5.23,44.93c-.14,1.7-1.55,2.97-3.25,2.97Z"/><path class="e" d="m312.93,108.69c-1.84,0-3.25-1.41-3.25-3.25,0-1.13.57-2.26,1.55-2.83l21.05-12.72c1.55-.99,3.53-.42,4.52,1.13s.42,3.53-1.13,4.52l-21.05,12.72c-.57.28-1.13.42-1.7.42h0Z"/><path class="e" d="m358.28,144.43c-.42,0-.71,0-1.13-.14l-43.38-15.97c-1.7-.57-2.54-2.54-1.98-4.24s2.54-2.54,4.24-1.98l43.38,15.97c1.7.57,2.54,2.54,1.98,4.24-.57,1.27-1.84,2.12-3.11,2.12Z"/><path class="e" d="m339.07,205.9c-1.27,0-2.4-.71-2.97-1.84l-31.65-67.11c-.71-1.7,0-3.67,1.55-4.38,1.7-.71,3.67,0,4.38,1.55l31.65,67.11c.71,1.7,0,3.53-1.55,4.38-.42.14-.99.28-1.41.28h0Z"/><path class="e" d="m315.33,242.35c-1.84,0-3.25-1.41-3.25-3.25,0-1.13.57-2.26,1.7-2.83l38.01-21.9c1.55-.85,3.53-.42,4.52,1.27.85,1.55.42,3.53-1.27,4.52l-38.01,21.76c-.57.28-1.13.42-1.7.42h0Z"/><path class="e" d="m326.78,283.61c-.85,0-1.84-.42-2.4-.99l-17.52-18.65c-1.27-1.41-1.13-3.39.28-4.66,1.27-1.13,3.25-1.13,4.52.14l17.52,18.65c1.27,1.27,1.13,3.39-.14,4.66-.57.57-1.41.85-2.26.85h0Z"/><path class="e" d="m290.04,322.89c-1.98,0-3.39-1.55-3.25-3.39l1.7-49.45c0-1.84,1.55-3.25,3.39-3.11,1.84,0,3.25,1.55,3.11,3.39l-1.7,49.45c-.14,1.7-1.55,2.97-3.25,3.11h0Z"/><path class="e" d="m268,343.38c-.28,0-.57,0-.85-.14l-65.7-18.23c-1.7-.57-2.68-2.4-2.12-4.1.57-1.7,2.26-2.68,3.96-2.26l65.56,18.23c1.7.42,2.83,2.26,2.26,4.1-.28,1.41-1.7,2.4-3.11,2.4Z"/><path class="e" d="m205.97,310.31c-1.84,0-3.25-1.41-3.25-3.25,0-1.41.99-2.68,2.26-3.11l65.42-20.77c1.7-.57,3.53.28,4.24,1.98.57,1.7-.28,3.53-1.98,4.24q-.14,0-.28.14l-65.42,20.77h-.99Z"/><path class="e" d="m201.31,360.33c-1.13,0-2.26-.71-2.83-1.7l-13.71-24.87c-.85-1.55-.28-3.53,1.27-4.52,1.55-.85,3.53-.28,4.52,1.27l13.71,24.87c.85,1.55.28,3.53-1.27,4.52-.57.28-1.13.42-1.7.42h0Z"/><path class="e" d="m154.26,359.62c-1.84,0-3.25-1.41-3.25-3.25,0-.57.14-1.27.57-1.84l16.11-25.01c.99-1.55,2.97-2.12,4.52-1.13s2.12,2.97,1.13,4.52c0,0,0,.14-.14.14l-16.11,25.01c-.71.99-1.84,1.55-2.83,1.55h0Z"/><path class="e" d="m166.83,266.51h-.57l-71.78-12.86c-1.84-.28-2.97-1.98-2.68-3.81s1.98-2.97,3.81-2.68h.14l71.78,12.86c1.84.42,2.97,2.12,2.54,3.96-.42,1.41-1.7,2.54-3.25,2.54h0Z"/><path class="e" d="m91.81,233.03c-1.84,0-3.25-1.41-3.25-3.25,0-1.27.71-2.4,1.84-2.97l66.13-34.05c1.7-.85,3.53-.14,4.38,1.55.71,1.55.14,3.39-1.41,4.24l-66.13,34.05c-.57.42-1.13.42-1.55.42Z"/><path class="e" d="m44.9,245.74h-.14l-30.94-1.7c-1.84-.14-3.25-1.7-3.11-3.39,0-1.84,1.55-3.11,3.39-3.11h.14l30.94,1.7c1.84.14,3.25,1.7,3.11,3.39-.14,1.7-1.7,3.11-3.39,3.11Z"/><path class="e" d="m47.72,233.87c-.85,0-1.7-.28-2.4-.99L.95,187.67c-1.27-1.27-1.27-3.39,0-4.66,1.27-1.27,3.39-1.27,4.66,0l44.37,45.21c1.27,1.27,1.27,3.39,0,4.66-.57.71-1.41.99-2.26.99Z"/><path class="e" d="m80.22,223.28c-1.84,0-3.25-1.41-3.25-3.25,0-.57.14-.99.42-1.55l33.63-64.15c.85-1.55,2.83-2.26,4.38-1.41,1.55.85,2.26,2.83,1.41,4.38l-33.63,64.15c-.57,1.13-1.7,1.84-2.97,1.84Z"/><path class="e" d="m46.73,108.69c-.28,0-.57,0-.99-.14l-23.6-6.92c-1.7-.57-2.68-2.4-2.26-4.1.57-1.7,2.4-2.68,4.1-2.26l23.6,6.92c1.7.57,2.68,2.26,2.26,4.1-.28,1.41-1.55,2.4-3.11,2.4Z"/><path class="e" d="m57.19,96.68c-1.41,0-2.68-.99-3.11-2.26l-9.75-30.38c-.57-1.7.28-3.53,1.98-4.24,1.7-.57,3.53.28,4.24,1.98v.14l9.75,30.38c.57,1.7-.42,3.53-2.12,4.1-.28.14-.57.28-.99.28Z"/><path class="e" d="m75.27,95.55c-.28,0-.42,0-.71-.14-1.84-.42-2.83-2.12-2.54-3.96l13.85-63.16c.42-1.7,2.26-2.83,3.96-2.4,1.7.42,2.83,2.12,2.4,3.81l-13.85,63.16c-.28,1.7-1.55,2.68-3.11,2.68Z"/><path class="e" d="m39.81,290.96c-1.84,0-3.25-1.41-3.25-3.25,0-.57.14-1.27.42-1.7l14.98-24.16c.99-1.55,2.97-1.98,4.52-1.13,1.55.99,1.98,2.97,1.13,4.52l-14.98,24.16c-.71.99-1.7,1.55-2.83,1.55h0Z"/><path class="e" d="m83.04,331.93c-1.55,0-2.83-1.13-3.25-2.54l-13-59.77c-.28-1.84.85-3.53,2.68-3.81,1.7-.28,3.39.71,3.81,2.4l13,59.77c.42,1.84-.71,3.53-2.54,3.96h-.71Z"/><path class="e" d="m103.53,343.8c-1.84,0-3.25-1.41-3.25-3.25,0-1.41.85-2.54,2.12-3.11l53.27-21.05c1.7-.57,3.53.28,4.24,1.98.57,1.7-.14,3.39-1.84,4.1l-53.27,21.05c-.57.14-.99.28-1.27.28Z"/><path class="e" d="m88.98,100.92c-1.84,0-3.25-1.41-3.25-3.25,0-1.13.57-2.26,1.55-2.83l65.84-40.27c1.55-.99,3.53-.57,4.52.99s.57,3.53-.99,4.52c0,0-.14,0-.14.14l-65.7,40.27c-.57.28-1.27.42-1.84.42Z"/><path class="e" d="m157.51,45.53h-.28l-51.01-4.24c-1.84-.14-3.11-1.7-2.97-3.53s1.7-3.11,3.53-2.97l51.01,4.24c1.84.14,3.11,1.7,2.97,3.53-.14,1.7-1.55,2.97-3.25,2.97h0Z"/><path class="e" d="m174.18,31.97c-1.41,0-2.68-.85-3.11-2.26l-8.9-25.29c-.57-1.7.28-3.53,1.98-4.24,1.7-.57,3.53.28,4.24,1.98l8.9,25.29c.57,1.7-.28,3.53-1.98,4.24-.28.14-.71.28-1.13.28h0Z"/><path class="e" d="m192.55,34.08c-1.84,0-3.25-1.41-3.25-3.25,0-.71.28-1.55.71-2.12l20.49-24.3c1.13-1.41,3.25-1.55,4.66-.42,1.41,1.13,1.55,3.25.42,4.66l-20.49,24.3c-.57.71-1.55,1.13-2.54,1.13Z"/><path class="e" d="m202.72,46.09c-1.84,0-3.25-1.55-3.25-3.25,0-1.55,1.13-2.83,2.68-3.25l71.49-14.27c1.84-.42,3.53.85,3.81,2.54.42,1.84-.85,3.53-2.54,3.81l-71.49,14.27c-.28.14-.42.14-.71.14h0Z"/><path class="e" d="m167.4,161.11c-1.27,0-2.4-.71-2.97-1.7l-33.77-63.72c-.85-1.55-.14-3.53,1.41-4.38,1.55-.85,3.53-.14,4.38,1.27l33.77,63.72c.85,1.55.28,3.53-1.41,4.38-.42.28-.85.42-1.41.42h0Z"/><path class="e" d="m194.95,161.11c-1.84,0-3.25-1.41-3.25-3.25,0-.57.14-1.13.42-1.7l39.56-68.95c.99-1.55,2.97-1.98,4.52-1.13s1.98,2.83,1.13,4.38l-39.56,68.95c-.57,1.13-1.7,1.7-2.83,1.7Z"/><path class="e" d="m244.54,75.34c-.57,0-1.27-.14-1.7-.57-1.55-.99-1.98-2.97-.99-4.52l18.51-29.39c.99-1.55,2.97-1.98,4.52-.99s1.98,2.97.99,4.52l-18.51,29.39c-.71.99-1.7,1.55-2.83,1.55h0Z"/><path class="e" d="m287.21,183.57h-81.24c-1.84,0-3.25-1.41-3.25-3.25s1.41-3.25,3.25-3.25h81.24c1.84,0,3.25,1.41,3.25,3.25.14,1.84-1.41,3.25-3.25,3.25Z"/><path class="e" d="m233.38,156.3c-1.84,0-3.25-1.41-3.25-3.25,0-1.27.71-2.4,1.84-2.97l38.43-19.92c1.55-.85,3.53-.28,4.38,1.41.85,1.55.28,3.53-1.41,4.38l-38.43,19.92c-.57.28-1.13.42-1.55.42Z"/><path class="e" d="m266.3,114.62l-19.5-.71c-1.84-.14-3.25-1.7-3.11-3.53.14-1.7,1.55-2.97,3.25-3.11h.14l19.36.71c1.84,0,3.25,1.55,3.25,3.39,0,1.98-1.55,3.39-3.39,3.25h0Z"/><path class="e" d="m269.27,234.72c-.57,0-1.13-.14-1.7-.42l-66.41-38.71c-1.55-.99-1.98-2.97-1.13-4.52.99-1.55,2.83-1.98,4.38-1.13l66.41,38.71c1.55.99,2.12,2.97,1.13,4.52-.57.99-1.55,1.55-2.68,1.55h0Z"/><path class="e" d="m61.57,223.28c-1.84,0-3.25-1.41-3.25-3.25v-11.44c0-1.84,1.41-3.39,3.11-3.39,1.84,0,3.39,1.41,3.39,3.11v11.73c.14,1.7-1.41,3.25-3.25,3.25h0Z"/><path class="e" d="m61.57,194.59c-1.84,0-3.25-1.41-3.25-3.25v-49.17c0-1.84,1.55-3.25,3.39-3.11,1.7,0,3.11,1.41,3.11,3.11v49.17c.14,1.7-1.41,3.25-3.25,3.25Z"/><path class="e" d="m5.48,152.21c-1.84,0-3.25-1.41-3.25-3.25,0-1.27.71-2.4,1.84-2.97l39.84-20.2c1.55-.85,3.53-.28,4.52,1.27.85,1.55.28,3.53-1.27,4.52-.14,0-.14.14-.28.14l-39.99,20.35c-.42,0-.99.14-1.41.14h0Z"/><path class="e" d="m219.68,266.09c-1.84,0-3.25-1.55-3.25-3.39,0-1.55,1.13-2.83,2.68-3.11l46.77-8.76c1.84-.28,3.53.99,3.81,2.68.28,1.7-.85,3.39-2.54,3.67l-46.77,8.76c-.28.14-.42.14-.71.14h0Z"/><path class="e" d="m180.4,80.57c-15.4,0-27.83-12.43-27.83-27.83s12.43-27.83,27.83-27.83,27.83,12.43,27.83,27.83-12.43,27.83-27.83,27.83Zm0-49.17c-11.73,0-21.19,9.47-21.19,21.19s9.47,21.19,21.19,21.19,21.19-9.47,21.19-21.19-9.47-21.19-21.19-21.19Z"/><path class="e" d="m180.4,336.17c-15.4,0-27.83-12.43-27.83-27.83s12.43-27.83,27.83-27.83,27.83,12.43,27.83,27.83-12.43,27.69-27.83,27.83Zm0-49.17c-11.73,0-21.19,9.47-21.19,21.19s9.47,21.19,21.19,21.19,21.19-9.47,21.19-21.19-9.47-21.19-21.19-21.19Z"/><path class="e" d="m291.03,272.02c-15.4,0-27.83-12.43-27.83-27.83s12.43-27.83,27.83-27.83,27.83,12.43,27.83,27.83-12.58,27.83-27.83,27.83Zm0-49.03c-11.73,0-21.19,9.47-21.19,21.19s9.47,21.19,21.19,21.19,21.19-9.47,21.19-21.19-9.47-21.19-21.19-21.19Z"/><path class="e" d="m70.05,272.02c-15.4,0-27.83-12.43-27.83-27.83s12.43-27.83,27.83-27.83,27.83,12.43,27.83,27.83-12.43,27.83-27.83,27.83Zm0-49.03c-11.73,0-21.19,9.47-21.19,21.19s9.47,21.19,21.19,21.19,21.19-9.47,21.19-21.19-9.47-21.19-21.19-21.19Z"/><path class="e" d="m291.03,144.43c-15.4,0-27.83-12.43-27.83-27.83s12.43-27.83,27.83-27.83,27.83,12.43,27.83,27.83-12.58,27.69-27.83,27.83Zm0-49.17c-11.73,0-21.19,9.47-21.19,21.19s9.47,21.19,21.19,21.19,21.19-9.47,21.19-21.19-9.47-21.19-21.19-21.19Z"/><path class="e" d="m70.05,144.43c-15.4,0-27.83-12.43-27.83-27.83s12.43-27.83,27.83-27.83,27.83,12.43,27.83,27.83-12.43,27.69-27.83,27.83Zm0-49.17c-11.73,0-21.19,9.47-21.19,21.19s9.47,21.19,21.19,21.19,21.19-9.47,21.19-21.19-9.47-21.19-21.19-21.19Z"/><path class="e" d="m180.54,208.3c-15.4,0-27.83-12.43-27.83-27.83s12.43-27.83,27.83-27.83,27.83,12.43,27.83,27.83-12.43,27.83-27.83,27.83Zm0-49.03c-11.73,0-21.19,9.47-21.19,21.19s9.47,21.19,21.19,21.19,21.19-9.47,21.19-21.19-9.47-21.19-21.19-21.19Z"/><path class="d" d="m524.92,279.67v-50.4h15.41c3.74,0,7.16.59,10.26,1.76,3.1,1.18,5.72,2.86,7.88,5.04,2.16,2.18,3.8,4.85,4.93,7.99s1.69,6.59,1.69,10.33-.58,7.26-1.73,10.4c-1.15,3.14-2.8,5.82-4.93,8.03-2.14,2.21-4.75,3.9-7.85,5.08-3.1,1.18-6.52,1.76-10.26,1.76h-15.41Zm32.33-25.27c0-2.83-.35-5.4-1.04-7.7-.7-2.3-1.74-4.27-3.13-5.9-1.39-1.63-3.18-2.88-5.36-3.74-2.19-.86-4.72-1.3-7.6-1.3h-7.7v37.44h7.7c3.6,0,6.64-.67,9.11-2.02,2.47-1.34,4.43-3.4,5.87-6.16,1.44-2.76,2.16-6.3,2.16-10.62Z"/><path class="d" d="m621.54,279.67h-8.35l-7.92-14.62c-1.1-1.92-2.24-3.3-3.42-4.14-1.18-.84-2.68-1.26-4.5-1.26h-4.46v20.02h-7.56v-50.4h13.25c6.24,0,11.06,1.22,14.47,3.67,3.41,2.45,5.11,6.07,5.11,10.87,0,2.59-.46,4.82-1.37,6.7-.91,1.87-2.21,3.38-3.89,4.54-1.68,1.15-3.7,1.92-6.05,2.3,1.1.43,2.12,1.17,3.06,2.2.94,1.03,1.93,2.51,2.99,4.43l8.64,15.7Zm-23.26-43.92h-5.4v17.42h5.4c4.03,0,7.06-.7,9.07-2.09,2.02-1.39,3.02-3.62,3.02-6.7,0-1.58-.3-3-.9-4.25-.6-1.25-1.74-2.29-3.42-3.13-1.68-.84-4.27-1.26-7.78-1.26Z"/><path class="d" d="m640.77,279.67v-50.4h7.49v50.4h-7.49Z"/><path class="d" d="m692.25,279.67h-8.42c-7.2-15.36-12.91-32.16-17.14-50.4h7.78c1.82,7.78,3.97,15.58,6.44,23.4,2.47,7.82,4.86,14.4,7.16,19.73,1.63-3.79,3.35-8.35,5.15-13.68,1.8-5.33,3.42-10.61,4.86-15.84,1.44-5.23,2.62-9.77,3.53-13.61h7.78c-4.22,18.24-9.94,35.04-17.14,50.4Z"/><path class="d" d="m758.05,273.19v6.48h-30.24v-50.4h30.24v6.48h-22.75v14.9h19.51v6.48h-19.51v16.06h22.75Z"/><path class="d" d="m494.85,180.13c-3.11,1.78-6.98,3.24-11.64,4.39s-9.87,1.73-15.63,1.73c-8.42,0-14.9-1.86-19.42-5.59-4.52-3.72-6.78-8.6-6.78-14.63,0-4.17.97-7.76,2.93-10.77,1.95-3.01,4.88-5.41,8.78-7.18,3.9-1.77,8.73-2.66,14.5-2.66,5.05,0,9.75.49,14.1,1.46v-5.59c0-4.61-1.31-8.16-3.92-10.64-2.62-2.48-6.5-3.72-11.64-3.72-2.93,0-6.03.31-9.31.93-3.28.62-6.12,1.42-8.51,2.39l-2.66-10.77c2.84-1.15,6.32-2.08,10.44-2.79,4.12-.71,7.91-1.06,11.37-1.06,8.96,0,15.76,2.26,20.42,6.78,4.65,4.52,6.98,11.04,6.98,19.55v38.17Zm-26.07-3.99c5.41,0,9.71-.93,12.9-2.79v-17.42c-4.26-1.06-8.42-1.6-12.5-1.6-4.35,0-7.83.91-10.44,2.73-2.62,1.82-3.92,4.63-3.92,8.45,0,3.46,1.22,6.1,3.66,7.91,2.44,1.82,5.87,2.73,10.31,2.73Z"/><path class="d" d="m547.51,180.93c-9.13,16.05-20.79,25.49-34.98,28.33l-2.26-11.57c4.43-.89,8.71-2.73,12.83-5.52s7.42-6.23,9.91-10.31c-7.18-10.11-12.77-20.33-16.76-30.66-3.99-10.33-6.65-21.66-7.98-33.98h13.57c.71,7.89,2.35,16.25,4.92,25.07,2.57,8.82,7,18.55,13.3,29.19,4.43-8.78,7.87-17.36,10.31-25.74,2.44-8.38,4.14-17.89,5.12-28.53h13.43c-2.31,21.1-9.44,42.34-21.41,63.71Z"/><path class="d" d="m680.78,184.65h-13.43v-42.43c0-4.79-1.18-8.53-3.53-11.24-2.35-2.7-6.01-4.06-10.97-4.06-2.66,0-5.5.47-8.51,1.4-3.01.93-5.5,2.02-7.45,3.26,1.15,3.37,1.73,7.4,1.73,12.1v40.96h-13.17v-42.43c0-4.79-1.18-8.53-3.52-11.24-2.35-2.7-5.96-4.06-10.84-4.06-2.39,0-4.9.31-7.51.93-2.62.62-4.94,1.46-6.98,2.53v54.26h-13.43v-62.78c4.17-1.95,8.73-3.48,13.7-4.59,4.96-1.11,9.89-1.66,14.76-1.66,8.07,0,14.41,2.04,19.02,6.12,7.36-4.08,14.94-6.12,22.74-6.12,5.59,0,10.35.91,14.3,2.73,3.94,1.82,7.12,4.61,9.51,8.38,2.39,3.77,3.59,8.62,3.59,14.56v43.36Z"/><path class="d" d="m708.44,105.52c-2.57,0-4.61-.75-6.12-2.26-1.51-1.51-2.26-3.5-2.26-5.99,0-2.3.75-4.21,2.26-5.72s3.55-2.26,6.12-2.26,4.48.75,5.99,2.26c1.51,1.51,2.26,3.41,2.26,5.72,0,2.48-.75,4.48-2.26,5.99s-3.5,2.26-5.99,2.26Zm6.78,11.7v67.43h-13.43v-67.43h13.43Z"/><path class="d" d="m750.2,184.65h-13.43v-62.78c4.08-1.95,8.69-3.48,13.83-4.59,5.14-1.11,10.2-1.66,15.16-1.66,9.22,0,16.27,2.24,21.15,6.72,4.88,4.48,7.32,10.8,7.32,18.95v43.36h-13.43v-42.43c0-4.88-1.29-8.64-3.86-11.3-2.57-2.66-6.3-3.99-11.17-3.99-2.66,0-5.39.31-8.18.93-2.79.62-5.25,1.46-7.38,2.53v54.26Z"/><path class="d" d="m869.9,182.79c0,8.69-2.73,15.41-8.18,20.15-5.45,4.74-12.97,7.12-22.54,7.12-3.46,0-6.96-.22-10.51-.67-3.55-.45-7.45-1.51-11.7-3.19l2.79-10.91c5.76,2.22,11.97,3.33,18.62,3.33,5.76,0,10.22-1.31,13.37-3.92,3.15-2.62,4.72-6.18,4.72-10.71v-5.59c-2.04,1.06-4.35,1.91-6.92,2.53-2.57.62-5.14.93-7.71.93-4.7,0-8.98-.71-12.83-2.13-3.86-1.42-7.14-3.5-9.84-6.25-2.71-2.75-4.77-6.1-6.18-10.04-1.42-3.94-2.13-8.4-2.13-13.37,0-10.55,3.13-18.93,9.38-25.14,6.25-6.21,14.52-9.31,24.8-9.31,3.46,0,7.45.4,11.97,1.2,4.52.8,8.82,2.17,12.9,4.12v61.84Zm-45.35-33.78c0,6.65,1.68,11.88,5.05,15.69,3.37,3.81,8.07,5.72,14.1,5.72,4.88,0,9.13-1.15,12.77-3.46v-37.9c-3.9-1.42-7.71-2.13-11.44-2.13-6.3,0-11.28,1.97-14.96,5.92-3.68,3.95-5.52,9.33-5.52,16.16Z"/></g></svg>