<?xml version="1.0" encoding="UTF-8"?><svg id="b" xmlns="http://www.w3.org/2000/svg" viewBox="0 0 857.85 360.33"><defs><style>.d{letter-spacing:0em;}.e{letter-spacing:0em;}.f{font-size:72px;letter-spacing:.15em;}.f,.g{fill:#716d6d;font-family:DiodrumW03-Medium, DiodrumW03-Medium;font-weight:500;}.h{fill:#2bace2;}.g{font-size:133px;}</style></defs><g id="c"><path class="h" d="m297.25,221.58c-1.84,0-3.25-1.41-3.25-3.25v-77.85c0-1.84,1.41-3.25,3.25-3.25s3.25,1.41,3.25,3.25v77.85c0,1.84-1.41,3.25-3.25,3.25Z"/><path class="h" d="m179.97,285.3c-1.84,0-3.25-1.41-3.25-3.25v-75.73c0-1.84,1.55-3.25,3.39-3.11,1.7,0,3.11,1.41,3.11,3.11v75.59c0,1.98-1.41,3.39-3.25,3.39h0Z"/><path class="h" d="m179.97,155.74c-1.84,0-3.25-1.41-3.25-3.25v-73.33c0-1.84,1.55-3.25,3.39-3.11,1.7,0,3.11,1.41,3.11,3.11v73.33c0,1.84-1.41,3.25-3.25,3.25h0Z"/><path class="h" d="m156.66,171.42c-.57,0-1.13-.14-1.55-.42l-65.28-35.04c-1.55-.85-2.12-2.97-1.27-4.52s2.83-2.12,4.38-1.27l65.28,35.04c1.55.85,2.26,2.83,1.41,4.52-.57.99-1.7,1.7-2.97,1.7h0Z"/><path class="h" d="m154.68,308.76c-.57,0-1.13-.14-1.7-.42l-68.24-40.69c-1.55-.99-1.98-3.11-.85-4.52.99-1.41,2.83-1.84,4.24-1.13l68.24,40.69c1.55.99,2.12,2.97,1.13,4.52-.71.99-1.7,1.55-2.83,1.55h0Z"/><path class="h" d="m270.96,102.05c-.57,0-1.13-.14-1.7-.42l-66.55-38.86c-1.55-.85-2.12-2.97-1.13-4.52.85-1.55,2.97-2.12,4.52-1.13l66.55,38.86c1.55.85,2.12,2.97,1.13,4.52-.57.99-1.7,1.55-2.83,1.55h0Z"/><path class="h" d="m294.56,94.42h-.42c-1.84-.14-3.11-1.84-2.83-3.67l5.23-44.93c.14-1.84,1.7-3.11,3.53-2.97,1.84.14,3.11,1.7,2.97,3.53v.14l-5.23,44.93c-.14,1.7-1.55,2.97-3.25,2.97Z"/><path class="h" d="m312.93,108.69c-1.84,0-3.25-1.41-3.25-3.25,0-1.13.57-2.26,1.55-2.83l21.05-12.72c1.55-.99,3.53-.42,4.52,1.13.99,1.55.42,3.53-1.13,4.52l-21.05,12.72c-.57.28-1.13.42-1.7.42h0Z"/><path class="h" d="m358.28,144.43c-.42,0-.71,0-1.13-.14l-43.38-15.97c-1.7-.57-2.54-2.54-1.98-4.24s2.54-2.54,4.24-1.98l43.38,15.97c1.7.57,2.54,2.54,1.98,4.24-.57,1.27-1.84,2.12-3.11,2.12Z"/><path class="h" d="m339.07,205.9c-1.27,0-2.4-.71-2.97-1.84l-31.65-67.11c-.71-1.7,0-3.67,1.55-4.38,1.7-.71,3.67,0,4.38,1.55l31.65,67.11c.71,1.7,0,3.53-1.55,4.38-.42.14-.99.28-1.41.28h0Z"/><path class="h" d="m315.33,242.35c-1.84,0-3.25-1.41-3.25-3.25,0-1.13.57-2.26,1.7-2.83l38.01-21.9c1.55-.85,3.53-.42,4.52,1.27.85,1.55.42,3.53-1.27,4.52l-38.01,21.76c-.57.28-1.13.42-1.7.42h0Z"/><path class="h" d="m326.78,283.61c-.85,0-1.84-.42-2.4-.99l-17.52-18.65c-1.27-1.41-1.13-3.39.28-4.66,1.27-1.13,3.25-1.13,4.52.14l17.52,18.65c1.27,1.27,1.13,3.39-.14,4.66-.57.57-1.41.85-2.26.85h0Z"/><path class="h" d="m290.04,322.89c-1.98,0-3.39-1.55-3.25-3.39l1.7-49.45c0-1.84,1.55-3.25,3.39-3.11,1.84,0,3.25,1.55,3.11,3.39l-1.7,49.45c-.14,1.7-1.55,2.97-3.25,3.11h0Z"/><path class="h" d="m268,343.38c-.28,0-.57,0-.85-.14l-65.7-18.23c-1.7-.57-2.68-2.4-2.12-4.1.57-1.7,2.26-2.68,3.96-2.26l65.56,18.23c1.7.42,2.83,2.26,2.26,4.1-.28,1.41-1.7,2.4-3.11,2.4Z"/><path class="h" d="m205.97,310.31c-1.84,0-3.25-1.41-3.25-3.25,0-1.41.99-2.68,2.26-3.11l65.42-20.77c1.7-.57,3.53.28,4.24,1.98.57,1.7-.28,3.53-1.98,4.24q-.14,0-.28.14l-65.42,20.77h-.99Z"/><path class="h" d="m201.31,360.33c-1.13,0-2.26-.71-2.83-1.7l-13.71-24.87c-.85-1.55-.28-3.53,1.27-4.52,1.55-.85,3.53-.28,4.52,1.27l13.71,24.87c.85,1.55.28,3.53-1.27,4.52-.57.28-1.13.42-1.7.42h0Z"/><path class="h" d="m154.26,359.62c-1.84,0-3.25-1.41-3.25-3.25,0-.57.14-1.27.57-1.84l16.11-25.01c.99-1.55,2.97-2.12,4.52-1.13,1.55.99,2.12,2.97,1.13,4.52,0,0,0,.14-.14.14l-16.11,25.01c-.71.99-1.84,1.55-2.83,1.55h0Z"/><path class="h" d="m166.83,266.51h-.57l-71.78-12.86c-1.84-.28-2.97-1.98-2.68-3.81s1.98-2.97,3.81-2.68h.14l71.78,12.86c1.84.42,2.97,2.12,2.54,3.96-.42,1.41-1.7,2.54-3.25,2.54h0Z"/><path class="h" d="m91.81,233.03c-1.84,0-3.25-1.41-3.25-3.25,0-1.27.71-2.4,1.84-2.97l66.13-34.05c1.7-.85,3.53-.14,4.38,1.55.71,1.55.14,3.39-1.41,4.24l-66.13,34.05c-.57.42-1.13.42-1.55.42Z"/><path class="h" d="m44.9,245.74h-.14l-30.94-1.7c-1.84-.14-3.25-1.7-3.11-3.39,0-1.84,1.55-3.11,3.39-3.11h.14l30.94,1.7c1.84.14,3.25,1.7,3.11,3.39-.14,1.7-1.7,3.11-3.39,3.11Z"/><path class="h" d="m47.72,233.87c-.85,0-1.7-.28-2.4-.99L.95,187.67c-1.27-1.27-1.27-3.39,0-4.66,1.27-1.27,3.39-1.27,4.66,0l44.37,45.21c1.27,1.27,1.27,3.39,0,4.66-.57.71-1.41.99-2.26.99Z"/><path class="h" d="m80.22,223.28c-1.84,0-3.25-1.41-3.25-3.25,0-.57.14-.99.42-1.55l33.63-64.15c.85-1.55,2.83-2.26,4.38-1.41,1.55.85,2.26,2.83,1.41,4.38l-33.63,64.15c-.57,1.13-1.7,1.84-2.97,1.84Z"/><path class="h" d="m46.73,108.69c-.28,0-.57,0-.99-.14l-23.6-6.92c-1.7-.57-2.68-2.4-2.26-4.1.57-1.7,2.4-2.68,4.1-2.26l23.6,6.92c1.7.57,2.68,2.26,2.26,4.1-.28,1.41-1.55,2.4-3.11,2.4Z"/><path class="h" d="m57.19,96.68c-1.41,0-2.68-.99-3.11-2.26l-9.75-30.38c-.57-1.7.28-3.53,1.98-4.24,1.7-.57,3.53.28,4.24,1.98v.14l9.75,30.38c.57,1.7-.42,3.53-2.12,4.1-.28.14-.57.28-.99.28Z"/><path class="h" d="m75.27,95.55c-.28,0-.42,0-.71-.14-1.84-.42-2.83-2.12-2.54-3.96l13.85-63.16c.42-1.7,2.26-2.83,3.96-2.4s2.83,2.12,2.4,3.81l-13.85,63.16c-.28,1.7-1.55,2.68-3.11,2.68Z"/><path class="h" d="m39.81,290.96c-1.84,0-3.25-1.41-3.25-3.25,0-.57.14-1.27.42-1.7l14.98-24.16c.99-1.55,2.97-1.98,4.52-1.13,1.55.99,1.98,2.97,1.13,4.52l-14.98,24.16c-.71.99-1.7,1.55-2.83,1.55h0Z"/><path class="h" d="m83.04,331.93c-1.55,0-2.83-1.13-3.25-2.54l-13-59.77c-.28-1.84.85-3.53,2.68-3.81,1.7-.28,3.39.71,3.81,2.4l13,59.77c.42,1.84-.71,3.53-2.54,3.96h-.71Z"/><path class="h" d="m103.53,343.8c-1.84,0-3.25-1.41-3.25-3.25,0-1.41.85-2.54,2.12-3.11l53.27-21.05c1.7-.57,3.53.28,4.24,1.98.57,1.7-.14,3.39-1.84,4.1l-53.27,21.05c-.57.14-.99.28-1.27.28Z"/><path class="h" d="m88.98,100.92c-1.84,0-3.25-1.41-3.25-3.25,0-1.13.57-2.26,1.55-2.83l65.84-40.27c1.55-.99,3.53-.57,4.52.99s.57,3.53-.99,4.52c0,0-.14,0-.14.14l-65.7,40.27c-.57.28-1.27.42-1.84.42Z"/><path class="h" d="m157.51,45.53h-.28l-51.01-4.24c-1.84-.14-3.11-1.7-2.97-3.53.14-1.84,1.7-3.11,3.53-2.97l51.01,4.24c1.84.14,3.11,1.7,2.97,3.53-.14,1.7-1.55,2.97-3.25,2.97h0Z"/><path class="h" d="m174.18,31.97c-1.41,0-2.68-.85-3.11-2.26l-8.9-25.29c-.57-1.7.28-3.53,1.98-4.24,1.7-.57,3.53.28,4.24,1.98l8.9,25.29c.57,1.7-.28,3.53-1.98,4.24-.28.14-.71.28-1.13.28h0Z"/><path class="h" d="m192.55,34.08c-1.84,0-3.25-1.41-3.25-3.25,0-.71.28-1.55.71-2.12l20.49-24.3c1.13-1.41,3.25-1.55,4.66-.42,1.41,1.13,1.55,3.25.42,4.66l-20.49,24.3c-.57.71-1.55,1.13-2.54,1.13Z"/><path class="h" d="m202.72,46.09c-1.84,0-3.25-1.55-3.25-3.25,0-1.55,1.13-2.83,2.68-3.25l71.49-14.27c1.84-.42,3.53.85,3.81,2.54.42,1.84-.85,3.53-2.54,3.81l-71.49,14.27c-.28.14-.42.14-.71.14h0Z"/><path class="h" d="m167.4,161.11c-1.27,0-2.4-.71-2.97-1.7l-33.77-63.72c-.85-1.55-.14-3.53,1.41-4.38,1.55-.85,3.53-.14,4.38,1.27l33.77,63.72c.85,1.55.28,3.53-1.41,4.38-.42.28-.85.42-1.41.42h0Z"/><path class="h" d="m194.95,161.11c-1.84,0-3.25-1.41-3.25-3.25,0-.57.14-1.13.42-1.7l39.56-68.95c.99-1.55,2.97-1.98,4.52-1.13s1.98,2.83,1.13,4.38l-39.56,68.95c-.57,1.13-1.7,1.7-2.83,1.7Z"/><path class="h" d="m244.54,75.34c-.57,0-1.27-.14-1.7-.57-1.55-.99-1.98-2.97-.99-4.52l18.51-29.39c.99-1.55,2.97-1.98,4.52-.99,1.55.99,1.98,2.97.99,4.52l-18.51,29.39c-.71.99-1.7,1.55-2.83,1.55h0Z"/><path class="h" d="m287.21,183.57h-81.24c-1.84,0-3.25-1.41-3.25-3.25s1.41-3.25,3.25-3.25h81.24c1.84,0,3.25,1.41,3.25,3.25.14,1.84-1.41,3.25-3.25,3.25Z"/><path class="h" d="m233.38,156.3c-1.84,0-3.25-1.41-3.25-3.25,0-1.27.71-2.4,1.84-2.97l38.43-19.92c1.55-.85,3.53-.28,4.38,1.41.85,1.55.28,3.53-1.41,4.38l-38.43,19.92c-.57.28-1.13.42-1.55.42Z"/><path class="h" d="m266.3,114.62l-19.5-.71c-1.84-.14-3.25-1.7-3.11-3.53.14-1.7,1.55-2.97,3.25-3.11h.14l19.36.71c1.84,0,3.25,1.55,3.25,3.39,0,1.98-1.55,3.39-3.39,3.25h0Z"/><path class="h" d="m269.27,234.72c-.57,0-1.13-.14-1.7-.42l-66.41-38.71c-1.55-.99-1.98-2.97-1.13-4.52.99-1.55,2.83-1.98,4.38-1.13l66.41,38.71c1.55.99,2.12,2.97,1.13,4.52-.57.99-1.55,1.55-2.68,1.55h0Z"/><path class="h" d="m61.57,223.28c-1.84,0-3.25-1.41-3.25-3.25v-11.44c0-1.84,1.41-3.39,3.11-3.39,1.84,0,3.39,1.41,3.39,3.11v11.73c.14,1.7-1.41,3.25-3.25,3.25h0Z"/><path class="h" d="m61.57,194.59c-1.84,0-3.25-1.41-3.25-3.25v-49.17c0-1.84,1.55-3.25,3.39-3.11,1.7,0,3.11,1.41,3.11,3.11v49.17c.14,1.7-1.41,3.25-3.25,3.25Z"/><path class="h" d="m5.48,152.21c-1.84,0-3.25-1.41-3.25-3.25,0-1.27.71-2.4,1.84-2.97l39.84-20.2c1.55-.85,3.53-.28,4.52,1.27.85,1.55.28,3.53-1.27,4.52-.14,0-.14.14-.28.14l-39.99,20.35c-.42,0-.99.14-1.41.14h0Z"/><path class="h" d="m219.68,266.09c-1.84,0-3.25-1.55-3.25-3.39,0-1.55,1.13-2.83,2.68-3.11l46.77-8.76c1.84-.28,3.53.99,3.81,2.68.28,1.7-.85,3.39-2.54,3.67l-46.77,8.76c-.28.14-.42.14-.71.14h0Z"/><path class="h" d="m180.4,80.57c-15.4,0-27.83-12.43-27.83-27.83s12.43-27.83,27.83-27.83,27.83,12.43,27.83,27.83-12.43,27.83-27.83,27.83Zm0-49.17c-11.73,0-21.19,9.47-21.19,21.19s9.47,21.19,21.19,21.19,21.19-9.47,21.19-21.19-9.47-21.19-21.19-21.19Z"/><path class="h" d="m180.4,336.17c-15.4,0-27.83-12.43-27.83-27.83s12.43-27.83,27.83-27.83,27.83,12.43,27.83,27.83-12.43,27.69-27.83,27.83Zm0-49.17c-11.73,0-21.19,9.47-21.19,21.19s9.47,21.19,21.19,21.19,21.19-9.47,21.19-21.19-9.47-21.19-21.19-21.19Z"/><path class="h" d="m291.03,272.02c-15.4,0-27.83-12.43-27.83-27.83s12.43-27.83,27.83-27.83,27.83,12.43,27.83,27.83-12.58,27.83-27.83,27.83Zm0-49.03c-11.73,0-21.19,9.47-21.19,21.19s9.47,21.19,21.19,21.19,21.19-9.47,21.19-21.19-9.47-21.19-21.19-21.19Z"/><path class="h" d="m70.05,272.02c-15.4,0-27.83-12.43-27.83-27.83s12.43-27.83,27.83-27.83,27.83,12.43,27.83,27.83-12.43,27.83-27.83,27.83Zm0-49.03c-11.73,0-21.19,9.47-21.19,21.19s9.47,21.19,21.19,21.19,21.19-9.47,21.19-21.19-9.47-21.19-21.19-21.19Z"/><path class="h" d="m291.03,144.43c-15.4,0-27.83-12.43-27.83-27.83s12.43-27.83,27.83-27.83,27.83,12.43,27.83,27.83-12.58,27.69-27.83,27.83Zm0-49.17c-11.73,0-21.19,9.47-21.19,21.19s9.47,21.19,21.19,21.19,21.19-9.47,21.19-21.19-9.47-21.19-21.19-21.19Z"/><path class="h" d="m70.05,144.43c-15.4,0-27.83-12.43-27.83-27.83s12.43-27.83,27.83-27.83,27.83,12.43,27.83,27.83-12.43,27.69-27.83,27.83Zm0-49.17c-11.73,0-21.19,9.47-21.19,21.19s9.47,21.19,21.19,21.19,21.19-9.47,21.19-21.19-9.47-21.19-21.19-21.19Z"/><path class="h" d="m180.54,208.3c-15.4,0-27.83-12.43-27.83-27.83s12.43-27.83,27.83-27.83,27.83,12.43,27.83,27.83-12.43,27.83-27.83,27.83Zm0-49.03c-11.73,0-21.19,9.47-21.19,21.19s9.47,21.19,21.19,21.19,21.19-9.47,21.19-21.19-9.47-21.19-21.19-21.19Z"/><text class="f" transform="translate(541.68 275.88)"><tspan x="0" y="0">MAP</tspan></text><text class="g" transform="translate(412.7 180.87)"><tspan class="d" x="0" y="0">a</tspan><tspan class="e" x="68.5" y="0">yming</tspan></text></g></svg>